%TF.GenerationSoftware,KiCad,Pcbnew,10.0.3*%
%TF.CreationDate,2026-06-01T11:25:26+05:30*%
%TF.ProjectId,kicad practice,6b696361-6420-4707-9261-63746963652e,rev?*%
%TF.SameCoordinates,Original*%
%TF.FileFunction,Soldermask,Top*%
%TF.FilePolarity,Negative*%
%FSLAX46Y46*%
G04 Gerber Fmt 4.6, Leading zero omitted, Abs format (unit mm)*
G04 Created by KiCad (PCBNEW 10.0.3) date 2026-06-01 11:25:26*
%MOMM*%
%LPD*%
G01*
G04 APERTURE LIST*
G04 Aperture macros list*
%AMRoundRect*
0 Rectangle with rounded corners*
0 $1 Rounding radius*
0 $2 $3 $4 $5 $6 $7 $8 $9 X,Y pos of 4 corners*
0 Add a 4 corners polygon primitive as box body*
4,1,4,$2,$3,$4,$5,$6,$7,$8,$9,$2,$3,0*
0 Add four circle primitives for the rounded corners*
1,1,$1+$1,$2,$3*
1,1,$1+$1,$4,$5*
1,1,$1+$1,$6,$7*
1,1,$1+$1,$8,$9*
0 Add four rect primitives between the rounded corners*
20,1,$1+$1,$2,$3,$4,$5,0*
20,1,$1+$1,$4,$5,$6,$7,0*
20,1,$1+$1,$6,$7,$8,$9,0*
20,1,$1+$1,$8,$9,$2,$3,0*%
G04 Aperture macros list end*
%ADD10R,1.700000X1.700000*%
%ADD11C,1.700000*%
%ADD12C,1.600000*%
%ADD13C,1.800000*%
%ADD14R,1.800000X1.800000*%
%ADD15RoundRect,0.250000X-0.550000X-0.550000X0.550000X-0.550000X0.550000X0.550000X-0.550000X0.550000X0*%
%TA.AperFunction,ComponentPad*%
%ADD16R,1.700000X1.700000*%
%TD*%
%TA.AperFunction,ComponentPad*%
%ADD17C,1.700000*%
%TD*%
%TA.AperFunction,ComponentPad*%
%ADD18C,1.600000*%
%TD*%
%TA.AperFunction,ComponentPad*%
%ADD19C,1.800000*%
%TD*%
%TA.AperFunction,ComponentPad*%
%ADD20R,1.800000X1.800000*%
%TD*%
%TA.AperFunction,ComponentPad*%
%ADD21RoundRect,0.250000X-0.550000X-0.550000X0.550000X-0.550000X0.550000X0.550000X-0.550000X0.550000X0*%
%TD*%
%TA.AperFunction,Conductor*%
%ADD22C,0.200000*%
%TD*%
%ADD23C,0.150000*%
%ADD24C,0.120000*%
%TA.AperFunction,Profile*%
%ADD25C,0.050000*%
%TD*%
G04 APERTURE END LIST*
D10*
%TO.C,J1*%
X149000000Y-110960000D03*
D11*
X149000000Y-113500000D03*
%TD*%
D12*
%TO.C,R4*%
X184810000Y-93000000D03*
X177190000Y-93000000D03*
%TD*%
%TO.C,R3*%
X148810000Y-93000000D03*
X141190000Y-93000000D03*
%TD*%
%TO.C,R2*%
X172810000Y-102500000D03*
X165190000Y-102500000D03*
%TD*%
%TO.C,R1*%
X162310000Y-102500000D03*
X154690000Y-102500000D03*
%TD*%
D13*
%TO.C,D2*%
X181770000Y-84500000D03*
D14*
X179230000Y-84500000D03*
%TD*%
D12*
%TO.C,C1*%
X159500000Y-110000000D03*
X157500000Y-110000000D03*
%TD*%
%TO.C,C2*%
X165500000Y-82500000D03*
X160500000Y-82500000D03*
%TD*%
%TO.C,U1*%
X167315000Y-89190000D03*
X167315000Y-91730000D03*
X167315000Y-94270000D03*
X167315000Y-96810000D03*
X159695000Y-96810000D03*
X159695000Y-94270000D03*
X159695000Y-91730000D03*
D15*
X159695000Y-89190000D03*
%TD*%
D13*
%TO.C,D1*%
X145000000Y-84000000D03*
D14*
X142460000Y-84000000D03*
%TD*%
D16*
%TO.P,J1,1,Pin_1_1*%
%TO.N,VCC*%
X149000000Y-110960000D03*
D17*
%TO.P,J1,2,Pin_2_2*%
%TO.N,GND*%
X149000000Y-113500000D03*
%TD*%
D18*
%TO.P,R4,2*%
%TO.N,Net-(D2-A)*%
X184810000Y-93000000D03*
%TO.P,R4,1*%
%TO.N,VCC*%
X177190000Y-93000000D03*
%TD*%
%TO.P,R3,2*%
%TO.N,Net-(D1-A)*%
X148810000Y-93000000D03*
%TO.P,R3,1*%
%TO.N,Net-(D2-K)*%
X141190000Y-93000000D03*
%TD*%
%TO.P,R2,2*%
%TO.N,Net-(U1-DISCH)*%
X172810000Y-102500000D03*
%TO.P,R2,1*%
%TO.N,Net-(U1-THRES)*%
X165190000Y-102500000D03*
%TD*%
%TO.P,R1,2*%
%TO.N,Net-(U1-DISCH)*%
X162310000Y-102500000D03*
%TO.P,R1,1*%
%TO.N,VCC*%
X154690000Y-102500000D03*
%TD*%
D19*
%TO.P,D2,2,A_2*%
%TO.N,Net-(D2-A)*%
X181770000Y-84500000D03*
D20*
%TO.P,D2,1,K_1*%
%TO.N,Net-(D2-K)*%
X179230000Y-84500000D03*
%TD*%
D18*
%TO.P,C1,2*%
%TO.N,GND*%
X159500000Y-110000000D03*
%TO.P,C1,1*%
%TO.N,Net-(U1-THRES)*%
X157500000Y-110000000D03*
%TD*%
%TO.P,C2,2*%
%TO.N,GND*%
X165500000Y-82500000D03*
%TO.P,C2,1*%
%TO.N,VCC*%
X160500000Y-82500000D03*
%TD*%
%TO.P,U1,8,VCC_8*%
%TO.N,VCC*%
X167315000Y-89190000D03*
%TO.P,U1,7,DISCH_7*%
%TO.N,Net-(U1-DISCH)*%
X167315000Y-91730000D03*
%TO.P,U1,6,THRES_6*%
%TO.N,Net-(U1-THRES)*%
X167315000Y-94270000D03*
%TO.P,U1,5,CONT_5*%
%TO.N,unconnected-(U1-CONT-Pad5)*%
X167315000Y-96810000D03*
%TO.P,U1,4,~{RST}_4*%
%TO.N,VCC*%
X159695000Y-96810000D03*
%TO.P,U1,3,OUT_3*%
%TO.N,Net-(D2-K)*%
X159695000Y-94270000D03*
%TO.P,U1,2,TRIG_2*%
%TO.N,Net-(U1-THRES)*%
X159695000Y-91730000D03*
D21*
%TO.P,U1,1,GND_1*%
%TO.N,GND*%
X159695000Y-89190000D03*
%TD*%
D19*
%TO.P,D1,2,A_2*%
%TO.N,Net-(D1-A)*%
X145000000Y-84000000D03*
D20*
%TO.P,D1,1,K_1*%
%TO.N,GND*%
X142460000Y-84000000D03*
%TD*%
%TO.N,GND*%
D22*
X146700000Y-82800000D02*
X156400000Y-92500000D01*
X142460000Y-84000000D02*
X143660000Y-82800000D01*
X143660000Y-82800000D02*
X146700000Y-82800000D01*
X156400000Y-92500000D02*
X156400000Y-110455635D01*
X157044365Y-111100000D02*
X158400000Y-111100000D01*
X156400000Y-110455635D02*
X157044365Y-111100000D01*
X156400000Y-92485000D02*
X156400000Y-92500000D01*
X159695000Y-89190000D02*
X156400000Y-92485000D01*
X158400000Y-111100000D02*
X159500000Y-110000000D01*
X159695000Y-88305000D02*
X165500000Y-82500000D01*
X159695000Y-89190000D02*
X159695000Y-88305000D01*
%TO.N,Net-(D2-K)*%
X159239365Y-90630000D02*
X158595000Y-91274365D01*
X173100000Y-90630000D02*
X159239365Y-90630000D01*
X158595000Y-93170000D02*
X159695000Y-94270000D01*
X179230000Y-84500000D02*
X173100000Y-90630000D01*
X158595000Y-91274365D02*
X158595000Y-93170000D01*
%TO.N,Net-(U1-THRES)*%
X162235000Y-94270000D02*
X159695000Y-91730000D01*
X167315000Y-94270000D02*
X162235000Y-94270000D01*
X165190000Y-96395000D02*
X167315000Y-94270000D01*
X165190000Y-102500000D02*
X165190000Y-96395000D01*
X165000000Y-102500000D02*
X165190000Y-102500000D01*
X157500000Y-110000000D02*
X165000000Y-102500000D01*
%TO.N,Net-(D1-A)*%
X145000000Y-84000000D02*
X148810000Y-87810000D01*
X148810000Y-87810000D02*
X148810000Y-93000000D01*
%TD*%
D16*
%TO.P,J1,1,Pin_1_1*%
%TO.N,VCC*%
X149000000Y-110960000D03*
D17*
%TO.P,J1,2,Pin_2_2*%
%TO.N,GND*%
X149000000Y-113500000D03*
%TD*%
D18*
%TO.P,R4,2*%
%TO.N,Net-(D2-A)*%
X184810000Y-93000000D03*
%TO.P,R4,1*%
%TO.N,VCC*%
X177190000Y-93000000D03*
%TD*%
%TO.P,R3,2*%
%TO.N,Net-(D1-A)*%
X148810000Y-93000000D03*
%TO.P,R3,1*%
%TO.N,Net-(D2-K)*%
X141190000Y-93000000D03*
%TD*%
%TO.P,R2,2*%
%TO.N,Net-(U1-DISCH)*%
X172810000Y-102500000D03*
%TO.P,R2,1*%
%TO.N,Net-(U1-THRES)*%
X165190000Y-102500000D03*
%TD*%
%TO.P,R1,2*%
%TO.N,Net-(U1-DISCH)*%
X162310000Y-102500000D03*
%TO.P,R1,1*%
%TO.N,VCC*%
X154690000Y-102500000D03*
%TD*%
D19*
%TO.P,D2,2,A_2*%
%TO.N,Net-(D2-A)*%
X181770000Y-84500000D03*
D20*
%TO.P,D2,1,K_1*%
%TO.N,Net-(D2-K)*%
X179230000Y-84500000D03*
%TD*%
D18*
%TO.P,C1,2*%
%TO.N,GND*%
X159500000Y-110000000D03*
%TO.P,C1,1*%
%TO.N,Net-(U1-THRES)*%
X157500000Y-110000000D03*
%TD*%
%TO.P,C2,2*%
%TO.N,GND*%
X165500000Y-82500000D03*
%TO.P,C2,1*%
%TO.N,VCC*%
X160500000Y-82500000D03*
%TD*%
%TO.P,U1,8,VCC_8*%
%TO.N,VCC*%
X167315000Y-89190000D03*
%TO.P,U1,7,DISCH_7*%
%TO.N,Net-(U1-DISCH)*%
X167315000Y-91730000D03*
%TO.P,U1,6,THRES_6*%
%TO.N,Net-(U1-THRES)*%
X167315000Y-94270000D03*
%TO.P,U1,5,CONT_5*%
%TO.N,unconnected-(U1-CONT-Pad5)*%
X167315000Y-96810000D03*
%TO.P,U1,4,~{RST}_4*%
%TO.N,VCC*%
X159695000Y-96810000D03*
%TO.P,U1,3,OUT_3*%
%TO.N,Net-(D2-K)*%
X159695000Y-94270000D03*
%TO.P,U1,2,TRIG_2*%
%TO.N,Net-(U1-THRES)*%
X159695000Y-91730000D03*
D21*
%TO.P,U1,1,GND_1*%
%TO.N,GND*%
X159695000Y-89190000D03*
%TD*%
D19*
%TO.P,D1,2,A_2*%
%TO.N,Net-(D1-A)*%
X145000000Y-84000000D03*
D20*
%TO.P,D1,1,K_1*%
%TO.N,GND*%
X142460000Y-84000000D03*
%TD*%
%TO.N,Net-(U1-DISCH)*%
D22*
X163410000Y-103600000D02*
X162310000Y-102500000D01*
X172810000Y-102500000D02*
X171710000Y-103600000D01*
X171710000Y-103600000D02*
X163410000Y-103600000D01*
X167315000Y-91730000D02*
X162310000Y-96735000D01*
X162310000Y-96735000D02*
X162310000Y-102500000D01*
%TO.N,VCC*%
X171125000Y-93000000D02*
X167315000Y-89190000D01*
X177190000Y-93000000D02*
X171125000Y-93000000D01*
%TO.N,Net-(D2-A)*%
X184810000Y-87540000D02*
X184810000Y-93000000D01*
X181770000Y-84500000D02*
X184810000Y-87540000D01*
%TO.N,VCC*%
X167190000Y-89190000D02*
X167315000Y-89190000D01*
X160500000Y-82500000D02*
X167190000Y-89190000D01*
%TO.N,Net-(D2-K)*%
X141190000Y-93000000D02*
X142460000Y-94270000D01*
X142460000Y-94270000D02*
X159695000Y-94270000D01*
%TO.N,GND*%
X159500000Y-110000000D02*
X159500000Y-110500000D01*
X156000000Y-113500000D02*
X159500000Y-110000000D01*
X149000000Y-113500000D02*
X156000000Y-113500000D01*
%TO.N,VCC*%
X154690000Y-105270000D02*
X149000000Y-110960000D01*
X154690000Y-102500000D02*
X154690000Y-105270000D01*
X154690000Y-101815000D02*
X154690000Y-102500000D01*
X159695000Y-96810000D02*
X154690000Y-101815000D01*
X167315000Y-89190000D02*
X159695000Y-96810000D01*
%TD*%
%TA.AperFunction,Conductor*%
%TO.N,GND*%
G36*
X188942539Y-79020185D02*
G01*
X188988294Y-79072989D01*
X188999500Y-79124500D01*
X188999500Y-117875500D01*
X188979815Y-117942539D01*
X188927011Y-117988294D01*
X188875500Y-117999500D01*
X140124500Y-117999500D01*
X140057461Y-117979815D01*
X140011706Y-117927011D01*
X140000500Y-117875500D01*
X140000500Y-93949047D01*
X140020185Y-93882008D01*
X140072989Y-93836253D01*
X140142147Y-93826309D01*
X140205703Y-93855334D01*
X140212181Y-93861366D01*
X140342786Y-93991971D01*
X140433573Y-94057930D01*
X140508390Y-94112287D01*
X140617042Y-94167648D01*
X140690776Y-94205218D01*
X140690778Y-94205218D01*
X140690781Y-94205220D01*
X140795137Y-94239127D01*
X140885465Y-94268477D01*
X140986557Y-94284488D01*
X141087648Y-94300500D01*
X141087649Y-94300500D01*
X141292351Y-94300500D01*
X141292352Y-94300500D01*
X141494534Y-94268477D01*
X141508842Y-94263827D01*
X141578682Y-94261831D01*
X141634842Y-94294077D01*
X141975139Y-94634374D01*
X141975149Y-94634385D01*
X141979479Y-94638715D01*
X141979480Y-94638716D01*
X142091284Y-94750520D01*
X142178095Y-94800639D01*
X142178097Y-94800641D01*
X142228213Y-94829576D01*
X142228215Y-94829577D01*
X142380942Y-94870500D01*
X142380943Y-94870500D01*
X158465398Y-94870500D01*
X158532437Y-94890185D01*
X158575883Y-94938205D01*
X158582715Y-94951614D01*
X158703028Y-95117213D01*
X158847786Y-95261971D01*
X159002749Y-95374556D01*
X159013390Y-95382287D01*
X159104840Y-95428883D01*
X159106080Y-95429515D01*
X159156876Y-95477490D01*
X159173671Y-95545311D01*
X159151134Y-95611446D01*
X159106080Y-95650485D01*
X159013386Y-95697715D01*
X158847786Y-95818028D01*
X158703028Y-95962786D01*
X158582715Y-96128386D01*
X158489781Y-96310776D01*
X158426522Y-96505465D01*
X158394500Y-96707648D01*
X158394500Y-96912351D01*
X158426522Y-97114534D01*
X158431173Y-97128848D01*
X158433165Y-97198690D01*
X158400921Y-97254842D01*
X154460027Y-101195736D01*
X154398704Y-101229221D01*
X154391750Y-101230527D01*
X154385466Y-101231523D01*
X154190781Y-101294780D01*
X154190778Y-101294781D01*
X154008386Y-101387715D01*
X153842786Y-101508028D01*
X153698028Y-101652786D01*
X153577715Y-101818386D01*
X153484781Y-102000776D01*
X153421522Y-102195465D01*
X153389500Y-102397648D01*
X153389500Y-102602351D01*
X153421522Y-102804534D01*
X153484781Y-102999223D01*
X153577715Y-103181613D01*
X153698028Y-103347213D01*
X153698034Y-103347219D01*
X153842781Y-103491966D01*
X154008390Y-103612287D01*
X154021793Y-103619116D01*
X154072589Y-103667088D01*
X154089500Y-103729601D01*
X154089500Y-104969902D01*
X154069815Y-105036941D01*
X154053181Y-105057583D01*
X149537582Y-109573181D01*
X149476259Y-109606666D01*
X149449901Y-109609500D01*
X148102129Y-109609500D01*
X148102123Y-109609501D01*
X148042516Y-109615908D01*
X147907671Y-109666202D01*
X147907664Y-109666206D01*
X147792455Y-109752452D01*
X147792452Y-109752455D01*
X147706206Y-109867664D01*
X147706202Y-109867671D01*
X147655908Y-110002517D01*
X147649501Y-110062116D01*
X147649500Y-110062135D01*
X147649500Y-111857870D01*
X147649501Y-111857876D01*
X147655908Y-111917483D01*
X147706202Y-112052328D01*
X147706206Y-112052335D01*
X147792452Y-112167544D01*
X147792455Y-112167547D01*
X147907664Y-112253793D01*
X147907671Y-112253797D01*
X147952618Y-112270561D01*
X148042517Y-112304091D01*
X148102127Y-112310500D01*
X148112685Y-112310499D01*
X148179723Y-112330179D01*
X148200372Y-112346818D01*
X148870591Y-113017037D01*
X148807007Y-113034075D01*
X148692993Y-113099901D01*
X148599901Y-113192993D01*
X148534075Y-113307007D01*
X148517037Y-113370591D01*
X147884728Y-112738282D01*
X147884727Y-112738282D01*
X147845380Y-112792439D01*
X147748904Y-112981782D01*
X147683242Y-113183869D01*
X147683242Y-113183872D01*
X147650000Y-113393753D01*
X147650000Y-113606246D01*
X147683242Y-113816127D01*
X147683242Y-113816130D01*
X147748904Y-114018217D01*
X147845375Y-114207550D01*
X147884728Y-114261716D01*
X148517037Y-113629408D01*
X148534075Y-113692993D01*
X148599901Y-113807007D01*
X148692993Y-113900099D01*
X148807007Y-113965925D01*
X148870590Y-113982962D01*
X148238282Y-114615269D01*
X148238282Y-114615270D01*
X148292449Y-114654624D01*
X148481782Y-114751095D01*
X148683870Y-114816757D01*
X148893754Y-114850000D01*
X149106246Y-114850000D01*
X149316127Y-114816757D01*
X149316130Y-114816757D01*
X149518217Y-114751095D01*
X149707554Y-114654622D01*
X149761716Y-114615270D01*
X149761717Y-114615270D01*
X149129408Y-113982962D01*
X149192993Y-113965925D01*
X149307007Y-113900099D01*
X149400099Y-113807007D01*
X149465925Y-113692993D01*
X149482962Y-113629408D01*
X150115270Y-114261717D01*
X150115270Y-114261716D01*
X150154622Y-114207554D01*
X150251095Y-114018217D01*
X150316757Y-113816130D01*
X150316757Y-113816127D01*
X150350000Y-113606246D01*
X150350000Y-113393753D01*
X150316757Y-113183872D01*
X150316757Y-113183869D01*
X150251095Y-112981782D01*
X150154624Y-112792449D01*
X150115270Y-112738282D01*
X150115269Y-112738282D01*
X149482962Y-113370590D01*
X149465925Y-113307007D01*
X149400099Y-113192993D01*
X149307007Y-113099901D01*
X149192993Y-113034075D01*
X149129409Y-113017037D01*
X149799627Y-112346818D01*
X149860950Y-112313333D01*
X149887307Y-112310499D01*
X149897872Y-112310499D01*
X149957483Y-112304091D01*
X150092331Y-112253796D01*
X150207546Y-112167546D01*
X150293796Y-112052331D01*
X150344091Y-111917483D01*
X150350500Y-111857873D01*
X150350499Y-110510095D01*
X150370184Y-110443057D01*
X150386813Y-110422420D01*
X150911585Y-109897648D01*
X156199500Y-109897648D01*
X156199500Y-110102351D01*
X156231522Y-110304534D01*
X156294781Y-110499223D01*
X156387715Y-110681613D01*
X156508028Y-110847213D01*
X156652786Y-110991971D01*
X156773226Y-111079474D01*
X156818390Y-111112287D01*
X156934607Y-111171503D01*
X157000776Y-111205218D01*
X157000778Y-111205218D01*
X157000781Y-111205220D01*
X157105137Y-111239127D01*
X157195465Y-111268477D01*
X157296557Y-111284488D01*
X157397648Y-111300500D01*
X157397649Y-111300500D01*
X157602351Y-111300500D01*
X157602352Y-111300500D01*
X157804534Y-111268477D01*
X157999219Y-111205220D01*
X158181610Y-111112287D01*
X158274590Y-111044732D01*
X158347213Y-110991971D01*
X158347215Y-110991968D01*
X158347219Y-110991966D01*
X158491966Y-110847219D01*
X158491968Y-110847215D01*
X158491971Y-110847213D01*
X158580093Y-110725921D01*
X158612287Y-110681610D01*
X158705220Y-110499219D01*
X158723933Y-110441625D01*
X158754183Y-110392262D01*
X159100000Y-110046445D01*
X159100000Y-110052661D01*
X159127259Y-110154394D01*
X159179920Y-110245606D01*
X159254394Y-110320080D01*
X159345606Y-110372741D01*
X159447339Y-110400000D01*
X159453553Y-110400000D01*
X158774076Y-111079474D01*
X158818650Y-111111859D01*
X159000968Y-111204755D01*
X159195582Y-111267990D01*
X159397683Y-111300000D01*
X159602317Y-111300000D01*
X159804417Y-111267990D01*
X159999031Y-111204755D01*
X160181349Y-111111859D01*
X160225921Y-111079474D01*
X159546447Y-110400000D01*
X159552661Y-110400000D01*
X159654394Y-110372741D01*
X159745606Y-110320080D01*
X159820080Y-110245606D01*
X159872741Y-110154394D01*
X159900000Y-110052661D01*
X159900000Y-110046447D01*
X160579474Y-110725921D01*
X160611859Y-110681349D01*
X160704755Y-110499031D01*
X160767990Y-110304417D01*
X160800000Y-110102317D01*
X160800000Y-109897682D01*
X160767990Y-109695582D01*
X160704755Y-109500968D01*
X160611859Y-109318650D01*
X160579474Y-109274077D01*
X160579474Y-109274076D01*
X159900000Y-109953551D01*
X159900000Y-109947339D01*
X159872741Y-109845606D01*
X159820080Y-109754394D01*
X159745606Y-109679920D01*
X159654394Y-109627259D01*
X159552661Y-109600000D01*
X159546446Y-109600000D01*
X160225922Y-108920524D01*
X160225921Y-108920523D01*
X160181359Y-108888147D01*
X160181350Y-108888141D01*
X159999031Y-108795244D01*
X159804417Y-108732009D01*
X159602317Y-108700000D01*
X159397683Y-108700000D01*
X159195582Y-108732009D01*
X159000968Y-108795244D01*
X158818644Y-108888143D01*
X158774077Y-108920523D01*
X158774077Y-108920524D01*
X159453554Y-109600000D01*
X159447339Y-109600000D01*
X159345606Y-109627259D01*
X159254394Y-109679920D01*
X159179920Y-109754394D01*
X159127259Y-109845606D01*
X159100000Y-109947339D01*
X159100000Y-109953553D01*
X158754182Y-109607735D01*
X158723932Y-109558372D01*
X158705220Y-109500781D01*
X158612287Y-109318390D01*
X158580092Y-109274077D01*
X158491971Y-109152786D01*
X158347213Y-109008028D01*
X158181613Y-108887715D01*
X158181612Y-108887714D01*
X158181610Y-108887713D01*
X158124653Y-108858691D01*
X157999223Y-108794781D01*
X157804534Y-108731522D01*
X157629995Y-108703878D01*
X157602352Y-108699500D01*
X157397648Y-108699500D01*
X157373329Y-108703351D01*
X157195465Y-108731522D01*
X157000776Y-108794781D01*
X156818386Y-108887715D01*
X156652786Y-109008028D01*
X156508028Y-109152786D01*
X156387715Y-109318386D01*
X156294781Y-109500776D01*
X156231522Y-109695465D01*
X156199500Y-109897648D01*
X150911585Y-109897648D01*
X155058713Y-105750521D01*
X155058716Y-105750520D01*
X155170520Y-105638716D01*
X155220639Y-105551904D01*
X155249577Y-105501785D01*
X155290500Y-105349057D01*
X155290500Y-105190943D01*
X155290500Y-103729601D01*
X155310185Y-103662562D01*
X155358206Y-103619116D01*
X155371610Y-103612287D01*
X155537219Y-103491966D01*
X155681966Y-103347219D01*
X155681968Y-103347215D01*
X155681971Y-103347213D01*
X155734732Y-103274590D01*
X155802287Y-103181610D01*
X155895220Y-102999219D01*
X155958477Y-102804534D01*
X155990500Y-102602352D01*
X155990500Y-102397648D01*
X155958477Y-102195466D01*
X155895220Y-102000781D01*
X155895218Y-102000778D01*
X155895218Y-102000776D01*
X155802286Y-101818389D01*
X155802284Y-101818386D01*
X155752414Y-101749745D01*
X155728935Y-101683942D01*
X155744760Y-101615888D01*
X155765048Y-101589185D01*
X159250158Y-98104075D01*
X159311479Y-98070592D01*
X159376151Y-98073825D01*
X159390466Y-98078477D01*
X159592648Y-98110500D01*
X159592649Y-98110500D01*
X159797351Y-98110500D01*
X159797352Y-98110500D01*
X159999534Y-98078477D01*
X160194219Y-98015220D01*
X160376610Y-97922287D01*
X160469590Y-97854732D01*
X160542213Y-97801971D01*
X160542215Y-97801968D01*
X160542219Y-97801966D01*
X160686966Y-97657219D01*
X160686968Y-97657215D01*
X160686971Y-97657213D01*
X160739732Y-97584590D01*
X160807287Y-97491610D01*
X160900220Y-97309219D01*
X160963477Y-97114534D01*
X160995500Y-96912352D01*
X160995500Y-96707648D01*
X160963477Y-96505466D01*
X160958825Y-96491151D01*
X160956832Y-96421312D01*
X160989075Y-96365158D01*
X165802819Y-91551415D01*
X165864142Y-91517930D01*
X165933834Y-91522914D01*
X165989767Y-91564786D01*
X166014184Y-91630250D01*
X166014500Y-91639096D01*
X166014500Y-91832351D01*
X166046522Y-92034534D01*
X166051173Y-92048848D01*
X166053165Y-92118690D01*
X166020921Y-92174842D01*
X163955418Y-94240346D01*
X161941286Y-96254478D01*
X161941284Y-96254480D01*
X161885381Y-96310383D01*
X161829478Y-96366285D01*
X161829477Y-96366286D01*
X161819567Y-96383453D01*
X161819566Y-96383455D01*
X161750424Y-96503211D01*
X161750423Y-96503215D01*
X161709499Y-96655943D01*
X161709499Y-96655945D01*
X161709499Y-96824046D01*
X161709500Y-96824059D01*
X161709500Y-101270397D01*
X161689815Y-101337436D01*
X161641800Y-101380879D01*
X161628389Y-101387712D01*
X161462786Y-101508028D01*
X161318028Y-101652786D01*
X161197715Y-101818386D01*
X161104781Y-102000776D01*
X161041522Y-102195465D01*
X161009500Y-102397648D01*
X161009500Y-102602351D01*
X161041522Y-102804534D01*
X161104781Y-102999223D01*
X161197715Y-103181613D01*
X161318028Y-103347213D01*
X161462786Y-103491971D01*
X161617749Y-103604556D01*
X161628390Y-103612287D01*
X161709499Y-103653614D01*
X161810776Y-103705218D01*
X161810778Y-103705218D01*
X161810781Y-103705220D01*
X161885818Y-103729601D01*
X162005465Y-103768477D01*
X162033555Y-103772926D01*
X162207648Y-103800500D01*
X162207649Y-103800500D01*
X162412351Y-103800500D01*
X162412352Y-103800500D01*
X162614534Y-103768477D01*
X162628842Y-103763827D01*
X162644054Y-103763392D01*
X162658315Y-103758074D01*
X162678268Y-103762414D01*
X162698682Y-103761831D01*
X162712769Y-103769920D01*
X162726588Y-103772926D01*
X162754842Y-103794077D01*
X162925139Y-103964374D01*
X162925149Y-103964385D01*
X162929479Y-103968715D01*
X162929480Y-103968716D01*
X163041284Y-104080520D01*
X163128095Y-104130639D01*
X163128097Y-104130641D01*
X163166151Y-104152611D01*
X163178215Y-104159577D01*
X163330943Y-104200501D01*
X163330946Y-104200501D01*
X163496653Y-104200501D01*
X163496669Y-104200500D01*
X171623331Y-104200500D01*
X171623347Y-104200501D01*
X171630943Y-104200501D01*
X171789054Y-104200501D01*
X171789057Y-104200501D01*
X171941785Y-104159577D01*
X171991904Y-104130639D01*
X172078716Y-104080520D01*
X172190520Y-103968716D01*
X172190520Y-103968714D01*
X172200728Y-103958507D01*
X172200730Y-103958504D01*
X172365158Y-103794075D01*
X172426479Y-103760592D01*
X172491151Y-103763825D01*
X172505466Y-103768477D01*
X172505471Y-103768477D01*
X172505472Y-103768478D01*
X172533555Y-103772926D01*
X172707648Y-103800500D01*
X172707649Y-103800500D01*
X172912351Y-103800500D01*
X172912352Y-103800500D01*
X173114534Y-103768477D01*
X173309219Y-103705220D01*
X173491610Y-103612287D01*
X173584590Y-103544732D01*
X173657213Y-103491971D01*
X173657215Y-103491968D01*
X173657219Y-103491966D01*
X173801966Y-103347219D01*
X173801968Y-103347215D01*
X173801971Y-103347213D01*
X173854732Y-103274590D01*
X173922287Y-103181610D01*
X174015220Y-102999219D01*
X174078477Y-102804534D01*
X174110500Y-102602352D01*
X174110500Y-102397648D01*
X174078477Y-102195466D01*
X174015220Y-102000781D01*
X174015218Y-102000778D01*
X174015218Y-102000776D01*
X173981503Y-101934607D01*
X173922287Y-101818390D01*
X173914556Y-101807749D01*
X173801971Y-101652786D01*
X173657213Y-101508028D01*
X173491613Y-101387715D01*
X173491612Y-101387714D01*
X173491610Y-101387713D01*
X173434653Y-101358691D01*
X173309223Y-101294781D01*
X173114534Y-101231522D01*
X172939995Y-101203878D01*
X172912352Y-101199500D01*
X172707648Y-101199500D01*
X172683329Y-101203351D01*
X172505465Y-101231522D01*
X172310776Y-101294781D01*
X172128386Y-101387715D01*
X171962786Y-101508028D01*
X171818028Y-101652786D01*
X171697715Y-101818386D01*
X171604781Y-102000776D01*
X171541522Y-102195465D01*
X171509500Y-102397648D01*
X171509500Y-102602351D01*
X171541523Y-102804535D01*
X171546172Y-102818845D01*
X171546605Y-102834051D01*
X171551924Y-102848307D01*
X171547582Y-102868269D01*
X171548165Y-102888687D01*
X171540078Y-102902770D01*
X171537075Y-102916581D01*
X171515926Y-102944836D01*
X171497588Y-102963176D01*
X171436267Y-102996665D01*
X171409902Y-102999500D01*
X166565801Y-102999500D01*
X166498762Y-102979815D01*
X166453007Y-102927011D01*
X166443063Y-102857853D01*
X166447870Y-102837183D01*
X166458475Y-102804542D01*
X166458475Y-102804538D01*
X166458477Y-102804534D01*
X166490500Y-102602352D01*
X166490500Y-102397648D01*
X166458477Y-102195466D01*
X166395220Y-102000781D01*
X166395218Y-102000778D01*
X166395218Y-102000776D01*
X166361503Y-101934607D01*
X166302287Y-101818390D01*
X166294556Y-101807749D01*
X166181971Y-101652786D01*
X166037213Y-101508028D01*
X165871613Y-101387715D01*
X165871612Y-101387714D01*
X165871610Y-101387713D01*
X165814653Y-101358691D01*
X165689223Y-101294781D01*
X165494534Y-101231522D01*
X165319995Y-101203878D01*
X165292352Y-101199500D01*
X165087648Y-101199500D01*
X165063329Y-101203351D01*
X164885465Y-101231522D01*
X164690776Y-101294781D01*
X164508386Y-101387715D01*
X164342786Y-101508028D01*
X164198028Y-101652786D01*
X164077715Y-101818386D01*
X163984781Y-102000776D01*
X163921522Y-102195465D01*
X163889500Y-102397648D01*
X163889500Y-102602351D01*
X163921523Y-102804535D01*
X163921524Y-102804542D01*
X163932130Y-102837183D01*
X163932933Y-102865301D01*
X163936937Y-102893147D01*
X163933917Y-102899758D01*
X163934125Y-102907024D01*
X163919598Y-102931113D01*
X163907912Y-102956703D01*
X163901797Y-102960632D01*
X163898044Y-102966857D01*
X163872797Y-102979269D01*
X163849134Y-102994477D01*
X163838861Y-102995953D01*
X163835343Y-102997684D01*
X163814199Y-102999500D01*
X163710097Y-102999500D01*
X163643058Y-102979815D01*
X163622416Y-102963181D01*
X163604077Y-102944842D01*
X163570592Y-102883519D01*
X163573828Y-102818841D01*
X163578477Y-102804534D01*
X163610500Y-102602352D01*
X163610500Y-102397648D01*
X163578477Y-102195466D01*
X163515220Y-102000781D01*
X163515218Y-102000778D01*
X163515218Y-102000776D01*
X163481503Y-101934607D01*
X163422287Y-101818390D01*
X163414556Y-101807749D01*
X163301971Y-101652786D01*
X163157213Y-101508028D01*
X162991610Y-101387712D01*
X162978200Y-101380879D01*
X162927406Y-101332903D01*
X162910500Y-101270397D01*
X162910500Y-97035096D01*
X162930185Y-96968057D01*
X162946814Y-96947420D01*
X165802819Y-94091414D01*
X165864142Y-94057930D01*
X165933834Y-94062914D01*
X165989767Y-94104786D01*
X166014184Y-94170250D01*
X166014500Y-94179096D01*
X166014500Y-94372351D01*
X166046522Y-94574534D01*
X166109781Y-94769223D01*
X166202715Y-94951613D01*
X166323028Y-95117213D01*
X166467786Y-95261971D01*
X166622749Y-95374556D01*
X166633390Y-95382287D01*
X166724840Y-95428883D01*
X166726080Y-95429515D01*
X166776876Y-95477490D01*
X166793671Y-95545311D01*
X166771134Y-95611446D01*
X166726080Y-95650485D01*
X166633386Y-95697715D01*
X166467786Y-95818028D01*
X166323028Y-95962786D01*
X166202715Y-96128386D01*
X166109781Y-96310776D01*
X166046522Y-96505465D01*
X166014500Y-96707648D01*
X166014500Y-96912351D01*
X166046522Y-97114534D01*
X166109781Y-97309223D01*
X166202715Y-97491613D01*
X166323028Y-97657213D01*
X166467786Y-97801971D01*
X166622749Y-97914556D01*
X166633390Y-97922287D01*
X166749607Y-97981503D01*
X166815776Y-98015218D01*
X166815778Y-98015218D01*
X166815781Y-98015220D01*
X166920137Y-98049127D01*
X167010465Y-98078477D01*
X167111557Y-98094488D01*
X167212648Y-98110500D01*
X167212649Y-98110500D01*
X167417351Y-98110500D01*
X167417352Y-98110500D01*
X167619534Y-98078477D01*
X167814219Y-98015220D01*
X167996610Y-97922287D01*
X168089590Y-97854732D01*
X168162213Y-97801971D01*
X168162215Y-97801968D01*
X168162219Y-97801966D01*
X168306966Y-97657219D01*
X168306968Y-97657215D01*
X168306971Y-97657213D01*
X168359732Y-97584590D01*
X168427287Y-97491610D01*
X168520220Y-97309219D01*
X168583477Y-97114534D01*
X168615500Y-96912352D01*
X168615500Y-96707648D01*
X168583477Y-96505466D01*
X168582744Y-96503211D01*
X168543833Y-96383455D01*
X168520220Y-96310781D01*
X168520218Y-96310778D01*
X168520218Y-96310776D01*
X168486503Y-96244607D01*
X168427287Y-96128390D01*
X168419556Y-96117749D01*
X168306971Y-95962786D01*
X168162213Y-95818028D01*
X167996614Y-95697715D01*
X167990006Y-95694348D01*
X167903917Y-95650483D01*
X167853123Y-95602511D01*
X167836328Y-95534690D01*
X167858865Y-95468555D01*
X167903917Y-95429516D01*
X167996610Y-95382287D01*
X168017770Y-95366913D01*
X168162213Y-95261971D01*
X168162215Y-95261968D01*
X168162219Y-95261966D01*
X168306966Y-95117219D01*
X168306968Y-95117215D01*
X168306971Y-95117213D01*
X168359732Y-95044590D01*
X168427287Y-94951610D01*
X168520220Y-94769219D01*
X168583477Y-94574534D01*
X168615500Y-94372352D01*
X168615500Y-94167648D01*
X168606731Y-94112284D01*
X168583477Y-93965465D01*
X168520218Y-93770776D01*
X168474787Y-93681614D01*
X168427287Y-93588390D01*
X168406353Y-93559576D01*
X168306971Y-93422786D01*
X168162213Y-93278028D01*
X167996614Y-93157715D01*
X167990006Y-93154348D01*
X167903917Y-93110483D01*
X167853123Y-93062511D01*
X167836328Y-92994690D01*
X167858865Y-92928555D01*
X167903917Y-92889516D01*
X167996610Y-92842287D01*
X168017770Y-92826913D01*
X168162213Y-92721971D01*
X168162215Y-92721968D01*
X168162219Y-92721966D01*
X168306966Y-92577219D01*
X168306968Y-92577215D01*
X168306971Y-92577213D01*
X168384917Y-92469928D01*
X168427287Y-92411610D01*
X168520220Y-92229219D01*
X168583477Y-92034534D01*
X168615500Y-91832352D01*
X168615500Y-91639098D01*
X168635185Y-91572059D01*
X168687989Y-91526304D01*
X168757147Y-91516360D01*
X168820703Y-91545385D01*
X168827179Y-91551415D01*
X170756284Y-93480520D01*
X170756286Y-93480521D01*
X170756290Y-93480524D01*
X170893209Y-93559573D01*
X170893216Y-93559577D01*
X171045943Y-93600501D01*
X171045945Y-93600501D01*
X171211654Y-93600501D01*
X171211670Y-93600500D01*
X175960398Y-93600500D01*
X176027437Y-93620185D01*
X176070883Y-93668205D01*
X176077715Y-93681614D01*
X176198028Y-93847213D01*
X176342786Y-93991971D01*
X176433573Y-94057930D01*
X176508390Y-94112287D01*
X176617042Y-94167648D01*
X176690776Y-94205218D01*
X176690778Y-94205218D01*
X176690781Y-94205220D01*
X176795137Y-94239127D01*
X176885465Y-94268477D01*
X176986557Y-94284488D01*
X177087648Y-94300500D01*
X177087649Y-94300500D01*
X177292351Y-94300500D01*
X177292352Y-94300500D01*
X177494534Y-94268477D01*
X177689219Y-94205220D01*
X177871610Y-94112287D01*
X177964590Y-94044732D01*
X178037213Y-93991971D01*
X178037215Y-93991968D01*
X178037219Y-93991966D01*
X178181966Y-93847219D01*
X178181968Y-93847215D01*
X178181971Y-93847213D01*
X178237505Y-93770776D01*
X178302287Y-93681610D01*
X178395220Y-93499219D01*
X178458477Y-93304534D01*
X178490500Y-93102352D01*
X178490500Y-92897648D01*
X178458477Y-92695466D01*
X178395220Y-92500781D01*
X178395218Y-92500778D01*
X178395218Y-92500776D01*
X178361503Y-92434607D01*
X178302287Y-92318390D01*
X178294556Y-92307749D01*
X178181971Y-92152786D01*
X178037213Y-92008028D01*
X177871613Y-91887715D01*
X177871612Y-91887714D01*
X177871610Y-91887713D01*
X177814653Y-91858691D01*
X177689223Y-91794781D01*
X177494534Y-91731522D01*
X177319995Y-91703878D01*
X177292352Y-91699500D01*
X177087648Y-91699500D01*
X177063329Y-91703351D01*
X176885465Y-91731522D01*
X176690776Y-91794781D01*
X176508386Y-91887715D01*
X176342786Y-92008028D01*
X176198028Y-92152786D01*
X176077715Y-92318385D01*
X176070883Y-92331795D01*
X176022909Y-92382591D01*
X175960398Y-92399500D01*
X171425098Y-92399500D01*
X171358059Y-92379815D01*
X171337417Y-92363181D01*
X168609077Y-89634842D01*
X168575592Y-89573519D01*
X168578828Y-89508841D01*
X168583477Y-89494534D01*
X168615500Y-89292352D01*
X168615500Y-89087648D01*
X168594768Y-88956754D01*
X168583477Y-88885465D01*
X168520218Y-88690776D01*
X168486503Y-88624607D01*
X168427287Y-88508390D01*
X168411966Y-88487302D01*
X168306971Y-88342786D01*
X168162213Y-88198028D01*
X167996613Y-88077715D01*
X167996612Y-88077714D01*
X167996610Y-88077713D01*
X167937675Y-88047684D01*
X167814223Y-87984781D01*
X167619534Y-87921522D01*
X167444995Y-87893878D01*
X167417352Y-87889500D01*
X167212648Y-87889500D01*
X167145254Y-87900174D01*
X167010464Y-87921523D01*
X167010461Y-87921523D01*
X166901811Y-87956826D01*
X166831969Y-87958821D01*
X166775812Y-87926576D01*
X164647131Y-85797895D01*
X161794076Y-82944841D01*
X161760592Y-82883519D01*
X161763828Y-82818841D01*
X161768477Y-82804534D01*
X161800500Y-82602352D01*
X161800500Y-82397682D01*
X164200000Y-82397682D01*
X164200000Y-82602317D01*
X164232009Y-82804417D01*
X164295244Y-82999031D01*
X164388141Y-83181350D01*
X164388147Y-83181359D01*
X164420523Y-83225921D01*
X164420524Y-83225922D01*
X165100000Y-82546446D01*
X165100000Y-82552661D01*
X165127259Y-82654394D01*
X165179920Y-82745606D01*
X165254394Y-82820080D01*
X165345606Y-82872741D01*
X165447339Y-82900000D01*
X165453553Y-82900000D01*
X164774076Y-83579474D01*
X164818650Y-83611859D01*
X165000968Y-83704755D01*
X165195582Y-83767990D01*
X165397683Y-83800000D01*
X165602317Y-83800000D01*
X165804417Y-83767990D01*
X165999031Y-83704755D01*
X166181349Y-83611859D01*
X166225921Y-83579474D01*
X166225921Y-83579473D01*
X166198583Y-83552135D01*
X177829500Y-83552135D01*
X177829500Y-85447870D01*
X177829501Y-85447876D01*
X177835908Y-85507483D01*
X177886202Y-85642328D01*
X177886206Y-85642335D01*
X177972452Y-85757544D01*
X177972455Y-85757547D01*
X178087664Y-85843793D01*
X178087671Y-85843797D01*
X178222517Y-85894091D01*
X178222516Y-85894091D01*
X178229444Y-85894835D01*
X178282127Y-85900500D01*
X180177872Y-85900499D01*
X180237483Y-85894091D01*
X180372331Y-85843796D01*
X180487546Y-85757546D01*
X180573796Y-85642331D01*
X180601429Y-85568243D01*
X180603601Y-85562420D01*
X180645471Y-85506486D01*
X180710936Y-85482068D01*
X180779209Y-85496919D01*
X180807464Y-85518071D01*
X180857636Y-85568243D01*
X180857641Y-85568247D01*
X180959603Y-85642326D01*
X181035978Y-85697815D01*
X181164375Y-85763237D01*
X181232393Y-85797895D01*
X181232396Y-85797896D01*
X181299525Y-85819707D01*
X181442049Y-85866015D01*
X181659778Y-85900500D01*
X181659779Y-85900500D01*
X181880221Y-85900500D01*
X181880222Y-85900500D01*
X182097951Y-85866015D01*
X182168205Y-85843187D01*
X182238044Y-85841192D01*
X182294203Y-85873438D01*
X184173181Y-87752416D01*
X184206666Y-87813739D01*
X184209500Y-87840097D01*
X184209500Y-91770397D01*
X184189815Y-91837436D01*
X184141800Y-91880879D01*
X184128389Y-91887712D01*
X183962786Y-92008028D01*
X183818028Y-92152786D01*
X183697715Y-92318386D01*
X183604781Y-92500776D01*
X183541522Y-92695465D01*
X183509500Y-92897648D01*
X183509500Y-93102351D01*
X183541522Y-93304534D01*
X183604781Y-93499223D01*
X183697715Y-93681613D01*
X183818028Y-93847213D01*
X183962786Y-93991971D01*
X184053573Y-94057930D01*
X184128390Y-94112287D01*
X184237042Y-94167648D01*
X184310776Y-94205218D01*
X184310778Y-94205218D01*
X184310781Y-94205220D01*
X184415137Y-94239127D01*
X184505465Y-94268477D01*
X184606557Y-94284488D01*
X184707648Y-94300500D01*
X184707649Y-94300500D01*
X184912351Y-94300500D01*
X184912352Y-94300500D01*
X185114534Y-94268477D01*
X185309219Y-94205220D01*
X185491610Y-94112287D01*
X185584590Y-94044732D01*
X185657213Y-93991971D01*
X185657215Y-93991968D01*
X185657219Y-93991966D01*
X185801966Y-93847219D01*
X185801968Y-93847215D01*
X185801971Y-93847213D01*
X185857505Y-93770776D01*
X185922287Y-93681610D01*
X186015220Y-93499219D01*
X186078477Y-93304534D01*
X186110500Y-93102352D01*
X186110500Y-92897648D01*
X186078477Y-92695466D01*
X186015220Y-92500781D01*
X186015218Y-92500778D01*
X186015218Y-92500776D01*
X185981503Y-92434607D01*
X185922287Y-92318390D01*
X185914556Y-92307749D01*
X185801971Y-92152786D01*
X185657213Y-92008028D01*
X185491610Y-91887712D01*
X185478200Y-91880879D01*
X185427406Y-91832903D01*
X185410500Y-91770397D01*
X185410500Y-87460945D01*
X185410500Y-87460943D01*
X185369577Y-87308216D01*
X185369577Y-87308215D01*
X185369577Y-87308214D01*
X185340639Y-87258095D01*
X185340637Y-87258092D01*
X185290520Y-87171284D01*
X185178716Y-87059480D01*
X185178715Y-87059479D01*
X185174385Y-87055149D01*
X185174374Y-87055139D01*
X183143438Y-85024203D01*
X183109953Y-84962880D01*
X183113187Y-84898205D01*
X183136015Y-84827951D01*
X183170500Y-84610222D01*
X183170500Y-84389778D01*
X183136015Y-84172049D01*
X183067895Y-83962394D01*
X183067895Y-83962393D01*
X183030895Y-83889778D01*
X182967815Y-83765978D01*
X182856153Y-83612287D01*
X182838247Y-83587641D01*
X182838243Y-83587636D01*
X182682363Y-83431756D01*
X182682358Y-83431752D01*
X182504025Y-83302187D01*
X182504024Y-83302186D01*
X182504022Y-83302185D01*
X182386791Y-83242452D01*
X182307606Y-83202104D01*
X182307603Y-83202103D01*
X182097952Y-83133985D01*
X181989086Y-83116742D01*
X181880222Y-83099500D01*
X181659778Y-83099500D01*
X181587201Y-83110995D01*
X181442047Y-83133985D01*
X181232396Y-83202103D01*
X181232393Y-83202104D01*
X181035974Y-83302187D01*
X180857641Y-83431752D01*
X180857636Y-83431756D01*
X180807463Y-83481929D01*
X180746140Y-83515413D01*
X180676448Y-83510428D01*
X180620515Y-83468557D01*
X180603601Y-83437580D01*
X180573797Y-83357671D01*
X180573793Y-83357664D01*
X180487547Y-83242455D01*
X180487544Y-83242452D01*
X180372335Y-83156206D01*
X180372328Y-83156202D01*
X180237482Y-83105908D01*
X180237483Y-83105908D01*
X180177883Y-83099501D01*
X180177881Y-83099500D01*
X180177873Y-83099500D01*
X180177864Y-83099500D01*
X178282129Y-83099500D01*
X178282123Y-83099501D01*
X178222516Y-83105908D01*
X178087671Y-83156202D01*
X178087664Y-83156206D01*
X177972455Y-83242452D01*
X177972452Y-83242455D01*
X177886206Y-83357664D01*
X177886202Y-83357671D01*
X177835908Y-83492517D01*
X177829501Y-83552116D01*
X177829500Y-83552135D01*
X166198583Y-83552135D01*
X165546447Y-82900000D01*
X165552661Y-82900000D01*
X165654394Y-82872741D01*
X165745606Y-82820080D01*
X165820080Y-82745606D01*
X165872741Y-82654394D01*
X165900000Y-82552661D01*
X165900000Y-82546447D01*
X166579474Y-83225921D01*
X166611859Y-83181349D01*
X166704755Y-82999031D01*
X166767990Y-82804417D01*
X166800000Y-82602317D01*
X166800000Y-82397682D01*
X166767990Y-82195582D01*
X166704755Y-82000968D01*
X166611859Y-81818650D01*
X166579474Y-81774077D01*
X166579474Y-81774076D01*
X165900000Y-82453551D01*
X165900000Y-82447339D01*
X165872741Y-82345606D01*
X165820080Y-82254394D01*
X165745606Y-82179920D01*
X165654394Y-82127259D01*
X165552661Y-82100000D01*
X165546446Y-82100000D01*
X166225922Y-81420524D01*
X166225921Y-81420523D01*
X166181359Y-81388147D01*
X166181350Y-81388141D01*
X165999031Y-81295244D01*
X165804417Y-81232009D01*
X165602317Y-81200000D01*
X165397683Y-81200000D01*
X165195582Y-81232009D01*
X165000968Y-81295244D01*
X164818644Y-81388143D01*
X164774077Y-81420523D01*
X164774077Y-81420524D01*
X165453554Y-82100000D01*
X165447339Y-82100000D01*
X165345606Y-82127259D01*
X165254394Y-82179920D01*
X165179920Y-82254394D01*
X165127259Y-82345606D01*
X165100000Y-82447339D01*
X165100000Y-82453553D01*
X164420524Y-81774077D01*
X164420523Y-81774077D01*
X164388143Y-81818644D01*
X164295244Y-82000968D01*
X164232009Y-82195582D01*
X164200000Y-82397682D01*
X161800500Y-82397682D01*
X161800500Y-82397648D01*
X161792257Y-82345606D01*
X161768477Y-82195465D01*
X161737458Y-82100000D01*
X161705220Y-82000781D01*
X161705218Y-82000778D01*
X161705218Y-82000776D01*
X161612419Y-81818650D01*
X161612287Y-81818390D01*
X161580092Y-81774077D01*
X161491971Y-81652786D01*
X161347213Y-81508028D01*
X161181613Y-81387715D01*
X161181612Y-81387714D01*
X161181610Y-81387713D01*
X161124653Y-81358691D01*
X160999223Y-81294781D01*
X160804534Y-81231522D01*
X160629995Y-81203878D01*
X160602352Y-81199500D01*
X160397648Y-81199500D01*
X160373329Y-81203351D01*
X160195465Y-81231522D01*
X160000776Y-81294781D01*
X159818386Y-81387715D01*
X159652786Y-81508028D01*
X159508028Y-81652786D01*
X159387715Y-81818386D01*
X159294781Y-82000776D01*
X159231522Y-82195465D01*
X159199500Y-82397648D01*
X159199500Y-82602351D01*
X159231522Y-82804534D01*
X159294781Y-82999223D01*
X159339833Y-83087641D01*
X159387585Y-83181359D01*
X159387715Y-83181613D01*
X159508028Y-83347213D01*
X159652786Y-83491971D01*
X159784467Y-83587641D01*
X159818390Y-83612287D01*
X159934607Y-83671503D01*
X160000776Y-83705218D01*
X160000778Y-83705218D01*
X160000781Y-83705220D01*
X160105137Y-83739127D01*
X160195465Y-83768477D01*
X160296557Y-83784488D01*
X160397648Y-83800500D01*
X160397649Y-83800500D01*
X160602351Y-83800500D01*
X160602352Y-83800500D01*
X160804534Y-83768477D01*
X160818842Y-83763827D01*
X160888682Y-83761831D01*
X160944842Y-83794077D01*
X166000439Y-88849675D01*
X166033924Y-88910998D01*
X166035231Y-88956754D01*
X166014500Y-89087642D01*
X166014500Y-89292351D01*
X166046522Y-89494534D01*
X166051173Y-89508848D01*
X166053165Y-89578690D01*
X166020921Y-89634842D01*
X161207181Y-94448583D01*
X161145858Y-94482068D01*
X161076166Y-94477084D01*
X161020233Y-94435212D01*
X160995816Y-94369748D01*
X160995500Y-94360902D01*
X160995500Y-94167648D01*
X160963477Y-93965465D01*
X160900218Y-93770776D01*
X160854787Y-93681614D01*
X160807287Y-93588390D01*
X160786353Y-93559576D01*
X160686971Y-93422786D01*
X160542213Y-93278028D01*
X160376614Y-93157715D01*
X160370006Y-93154348D01*
X160283917Y-93110483D01*
X160233123Y-93062511D01*
X160216328Y-92994690D01*
X160238865Y-92928555D01*
X160283917Y-92889516D01*
X160376610Y-92842287D01*
X160397770Y-92826913D01*
X160542213Y-92721971D01*
X160542215Y-92721968D01*
X160542219Y-92721966D01*
X160686966Y-92577219D01*
X160686968Y-92577215D01*
X160686971Y-92577213D01*
X160764917Y-92469928D01*
X160807287Y-92411610D01*
X160900220Y-92229219D01*
X160963477Y-92034534D01*
X160995500Y-91832352D01*
X160995500Y-91627648D01*
X160986695Y-91572059D01*
X160963477Y-91425465D01*
X160934127Y-91335137D01*
X160900220Y-91230781D01*
X160900218Y-91230778D01*
X160900218Y-91230776D01*
X160866503Y-91164607D01*
X160807287Y-91048390D01*
X160799556Y-91037749D01*
X160686971Y-90882786D01*
X160542217Y-90738032D01*
X160542212Y-90738028D01*
X160448051Y-90669616D01*
X160405385Y-90614286D01*
X160399406Y-90544673D01*
X160432012Y-90482878D01*
X160481933Y-90451592D01*
X160564117Y-90424359D01*
X160564124Y-90424356D01*
X160713345Y-90332315D01*
X160837315Y-90208345D01*
X160929356Y-90059124D01*
X160929358Y-90059119D01*
X160984505Y-89892697D01*
X160984506Y-89892690D01*
X160994999Y-89789986D01*
X160995000Y-89789973D01*
X160995000Y-89440000D01*
X160010686Y-89440000D01*
X160015080Y-89435606D01*
X160067741Y-89344394D01*
X160095000Y-89242661D01*
X160095000Y-89137339D01*
X160067741Y-89035606D01*
X160015080Y-88944394D01*
X160010686Y-88940000D01*
X160994999Y-88940000D01*
X160994999Y-88590028D01*
X160994998Y-88590013D01*
X160984505Y-88487302D01*
X160929358Y-88320880D01*
X160929356Y-88320875D01*
X160837315Y-88171654D01*
X160713345Y-88047684D01*
X160564124Y-87955643D01*
X160564119Y-87955641D01*
X160397697Y-87900494D01*
X160397690Y-87900493D01*
X160294986Y-87890000D01*
X159945000Y-87890000D01*
X159945000Y-88874314D01*
X159940606Y-88869920D01*
X159849394Y-88817259D01*
X159747661Y-88790000D01*
X159642339Y-88790000D01*
X159540606Y-88817259D01*
X159449394Y-88869920D01*
X159445000Y-88874314D01*
X159445000Y-87890000D01*
X159095028Y-87890000D01*
X159095012Y-87890001D01*
X158992302Y-87900494D01*
X158825880Y-87955641D01*
X158825875Y-87955643D01*
X158676654Y-88047684D01*
X158552684Y-88171654D01*
X158460643Y-88320875D01*
X158460641Y-88320880D01*
X158405494Y-88487302D01*
X158405493Y-88487309D01*
X158395000Y-88590013D01*
X158395000Y-88940000D01*
X159379314Y-88940000D01*
X159374920Y-88944394D01*
X159322259Y-89035606D01*
X159295000Y-89137339D01*
X159295000Y-89242661D01*
X159322259Y-89344394D01*
X159374920Y-89435606D01*
X159379314Y-89440000D01*
X158395001Y-89440000D01*
X158395001Y-89789986D01*
X158405494Y-89892697D01*
X158460641Y-90059119D01*
X158460643Y-90059124D01*
X158552684Y-90208345D01*
X158676654Y-90332315D01*
X158825875Y-90424356D01*
X158825882Y-90424359D01*
X158908067Y-90451592D01*
X158965512Y-90491364D01*
X158992336Y-90555880D01*
X158980021Y-90624656D01*
X158941949Y-90669616D01*
X158847787Y-90738028D01*
X158847782Y-90738032D01*
X158703028Y-90882786D01*
X158582715Y-91048386D01*
X158489781Y-91230776D01*
X158426522Y-91425465D01*
X158394500Y-91627648D01*
X158394500Y-91832351D01*
X158426522Y-92034534D01*
X158489781Y-92229223D01*
X158582715Y-92411613D01*
X158703028Y-92577213D01*
X158847786Y-92721971D01*
X159002749Y-92834556D01*
X159013390Y-92842287D01*
X159104840Y-92888883D01*
X159106080Y-92889515D01*
X159156876Y-92937490D01*
X159173671Y-93005311D01*
X159151134Y-93071446D01*
X159106080Y-93110485D01*
X159013386Y-93157715D01*
X158847786Y-93278028D01*
X158703028Y-93422786D01*
X158582715Y-93588385D01*
X158575883Y-93601795D01*
X158527909Y-93652591D01*
X158465398Y-93669500D01*
X150130266Y-93669500D01*
X150063227Y-93649815D01*
X150017472Y-93597011D01*
X150007528Y-93527853D01*
X150014080Y-93503970D01*
X150013714Y-93503852D01*
X150015218Y-93499222D01*
X150015220Y-93499219D01*
X150078477Y-93304534D01*
X150110500Y-93102352D01*
X150110500Y-92897648D01*
X150078477Y-92695466D01*
X150015220Y-92500781D01*
X150015218Y-92500778D01*
X150015218Y-92500776D01*
X149981503Y-92434607D01*
X149922287Y-92318390D01*
X149914556Y-92307749D01*
X149801971Y-92152786D01*
X149657213Y-92008028D01*
X149491613Y-91887715D01*
X149491612Y-91887714D01*
X149491610Y-91887713D01*
X149434653Y-91858691D01*
X149309223Y-91794781D01*
X149114534Y-91731522D01*
X148939995Y-91703878D01*
X148912352Y-91699500D01*
X148707648Y-91699500D01*
X148683329Y-91703351D01*
X148505465Y-91731522D01*
X148310776Y-91794781D01*
X148128386Y-91887715D01*
X147962786Y-92008028D01*
X147818028Y-92152786D01*
X147697715Y-92318386D01*
X147604781Y-92500776D01*
X147541522Y-92695465D01*
X147509500Y-92897648D01*
X147509500Y-93102351D01*
X147541522Y-93304534D01*
X147579944Y-93422781D01*
X147604780Y-93499219D01*
X147604781Y-93499222D01*
X147606286Y-93503852D01*
X147604964Y-93504281D01*
X147611764Y-93567514D01*
X147580491Y-93629994D01*
X147520403Y-93665648D01*
X147489734Y-93669500D01*
X142760097Y-93669500D01*
X142693058Y-93649815D01*
X142672416Y-93633181D01*
X142484077Y-93444842D01*
X142450592Y-93383519D01*
X142453828Y-93318841D01*
X142458477Y-93304534D01*
X142490500Y-93102352D01*
X142490500Y-92897648D01*
X142458477Y-92695466D01*
X142395220Y-92500781D01*
X142395218Y-92500778D01*
X142395218Y-92500776D01*
X142361503Y-92434607D01*
X142302287Y-92318390D01*
X142294556Y-92307749D01*
X142181971Y-92152786D01*
X142037213Y-92008028D01*
X141871613Y-91887715D01*
X141871612Y-91887714D01*
X141871610Y-91887713D01*
X141814653Y-91858691D01*
X141689223Y-91794781D01*
X141494534Y-91731522D01*
X141319995Y-91703878D01*
X141292352Y-91699500D01*
X141087648Y-91699500D01*
X141063329Y-91703351D01*
X140885465Y-91731522D01*
X140690776Y-91794781D01*
X140508386Y-91887715D01*
X140342786Y-92008028D01*
X140342782Y-92008032D01*
X140212181Y-92138634D01*
X140150858Y-92172119D01*
X140081166Y-92167135D01*
X140025233Y-92125263D01*
X140000816Y-92059799D01*
X140000500Y-92050953D01*
X140000500Y-83052155D01*
X141060000Y-83052155D01*
X141060000Y-83750000D01*
X142084722Y-83750000D01*
X142040667Y-83826306D01*
X142010000Y-83940756D01*
X142010000Y-84059244D01*
X142040667Y-84173694D01*
X142084722Y-84250000D01*
X141060000Y-84250000D01*
X141060000Y-84947844D01*
X141066401Y-85007372D01*
X141066403Y-85007379D01*
X141116645Y-85142086D01*
X141116649Y-85142093D01*
X141202809Y-85257187D01*
X141202812Y-85257190D01*
X141317906Y-85343350D01*
X141317913Y-85343354D01*
X141452620Y-85393596D01*
X141452627Y-85393598D01*
X141512155Y-85399999D01*
X141512172Y-85400000D01*
X142210000Y-85400000D01*
X142210000Y-84375277D01*
X142286306Y-84419333D01*
X142400756Y-84450000D01*
X142519244Y-84450000D01*
X142633694Y-84419333D01*
X142710000Y-84375277D01*
X142710000Y-85400000D01*
X143407828Y-85400000D01*
X143407844Y-85399999D01*
X143467372Y-85393598D01*
X143467379Y-85393596D01*
X143602086Y-85343354D01*
X143602093Y-85343350D01*
X143717187Y-85257190D01*
X143717190Y-85257187D01*
X143803350Y-85142093D01*
X143803354Y-85142086D01*
X143833213Y-85062031D01*
X143875084Y-85006097D01*
X143940548Y-84981680D01*
X144008821Y-84996531D01*
X144037076Y-85017683D01*
X144087636Y-85068243D01*
X144087641Y-85068247D01*
X144243192Y-85181260D01*
X144265978Y-85197815D01*
X144382501Y-85257187D01*
X144462393Y-85297895D01*
X144462396Y-85297896D01*
X144512841Y-85314286D01*
X144672049Y-85366015D01*
X144889778Y-85400500D01*
X144889779Y-85400500D01*
X145110221Y-85400500D01*
X145110222Y-85400500D01*
X145327951Y-85366015D01*
X145537606Y-85297895D01*
X145734022Y-85197815D01*
X145912365Y-85068242D01*
X146068242Y-84912365D01*
X146197815Y-84734022D01*
X146297895Y-84537606D01*
X146366015Y-84327951D01*
X146400500Y-84110222D01*
X146400500Y-83889778D01*
X146366015Y-83672049D01*
X146327047Y-83552116D01*
X146297896Y-83462396D01*
X146297895Y-83462393D01*
X146244532Y-83357664D01*
X146197815Y-83265978D01*
X146151408Y-83202104D01*
X146068247Y-83087641D01*
X146068243Y-83087636D01*
X145912363Y-82931756D01*
X145912358Y-82931752D01*
X145734025Y-82802187D01*
X145734024Y-82802186D01*
X145734022Y-82802185D01*
X145622981Y-82745606D01*
X145537606Y-82702104D01*
X145537603Y-82702103D01*
X145327952Y-82633985D01*
X145219086Y-82616742D01*
X145110222Y-82599500D01*
X144889778Y-82599500D01*
X144817201Y-82610995D01*
X144672047Y-82633985D01*
X144462396Y-82702103D01*
X144462393Y-82702104D01*
X144265974Y-82802187D01*
X144087641Y-82931752D01*
X144087636Y-82931756D01*
X144037075Y-82982317D01*
X143975752Y-83015801D01*
X143906060Y-83010816D01*
X143850127Y-82968945D01*
X143833213Y-82937968D01*
X143803354Y-82857913D01*
X143803350Y-82857906D01*
X143717190Y-82742812D01*
X143717187Y-82742809D01*
X143602093Y-82656649D01*
X143602086Y-82656645D01*
X143467379Y-82606403D01*
X143467372Y-82606401D01*
X143407844Y-82600000D01*
X142710000Y-82600000D01*
X142710000Y-83624722D01*
X142633694Y-83580667D01*
X142519244Y-83550000D01*
X142400756Y-83550000D01*
X142286306Y-83580667D01*
X142210000Y-83624722D01*
X142210000Y-82600000D01*
X141512155Y-82600000D01*
X141452627Y-82606401D01*
X141452620Y-82606403D01*
X141317913Y-82656645D01*
X141317906Y-82656649D01*
X141202812Y-82742809D01*
X141202809Y-82742812D01*
X141116649Y-82857906D01*
X141116645Y-82857913D01*
X141066403Y-82992620D01*
X141066401Y-82992627D01*
X141060000Y-83052155D01*
X140000500Y-83052155D01*
X140000500Y-79124500D01*
X140020185Y-79057461D01*
X140072989Y-79011706D01*
X140124500Y-79000500D01*
X188875500Y-79000500D01*
X188942539Y-79020185D01*
G37*
%TD.AperFunction*%
%TD*%
D23*
X148666666Y-108034819D02*
X148666666Y-108749104D01*
X148666666Y-108749104D02*
X148619047Y-108891961D01*
X148619047Y-108891961D02*
X148523809Y-108987200D01*
X148523809Y-108987200D02*
X148380952Y-109034819D01*
X148380952Y-109034819D02*
X148285714Y-109034819D01*
X149666666Y-109034819D02*
X149095238Y-109034819D01*
X149380952Y-109034819D02*
X149380952Y-108034819D01*
X149380952Y-108034819D02*
X149285714Y-108177676D01*
X149285714Y-108177676D02*
X149190476Y-108272914D01*
X149190476Y-108272914D02*
X149095238Y-108320533D01*
X180833333Y-91084819D02*
X180500000Y-90608628D01*
X180261905Y-91084819D02*
X180261905Y-90084819D01*
X180261905Y-90084819D02*
X180642857Y-90084819D01*
X180642857Y-90084819D02*
X180738095Y-90132438D01*
X180738095Y-90132438D02*
X180785714Y-90180057D01*
X180785714Y-90180057D02*
X180833333Y-90275295D01*
X180833333Y-90275295D02*
X180833333Y-90418152D01*
X180833333Y-90418152D02*
X180785714Y-90513390D01*
X180785714Y-90513390D02*
X180738095Y-90561009D01*
X180738095Y-90561009D02*
X180642857Y-90608628D01*
X180642857Y-90608628D02*
X180261905Y-90608628D01*
X181690476Y-90418152D02*
X181690476Y-91084819D01*
X181452381Y-90037200D02*
X181214286Y-90751485D01*
X181214286Y-90751485D02*
X181833333Y-90751485D01*
X144833333Y-91084819D02*
X144500000Y-90608628D01*
X144261905Y-91084819D02*
X144261905Y-90084819D01*
X144261905Y-90084819D02*
X144642857Y-90084819D01*
X144642857Y-90084819D02*
X144738095Y-90132438D01*
X144738095Y-90132438D02*
X144785714Y-90180057D01*
X144785714Y-90180057D02*
X144833333Y-90275295D01*
X144833333Y-90275295D02*
X144833333Y-90418152D01*
X144833333Y-90418152D02*
X144785714Y-90513390D01*
X144785714Y-90513390D02*
X144738095Y-90561009D01*
X144738095Y-90561009D02*
X144642857Y-90608628D01*
X144642857Y-90608628D02*
X144261905Y-90608628D01*
X145166667Y-90084819D02*
X145785714Y-90084819D01*
X145785714Y-90084819D02*
X145452381Y-90465771D01*
X145452381Y-90465771D02*
X145595238Y-90465771D01*
X145595238Y-90465771D02*
X145690476Y-90513390D01*
X145690476Y-90513390D02*
X145738095Y-90561009D01*
X145738095Y-90561009D02*
X145785714Y-90656247D01*
X145785714Y-90656247D02*
X145785714Y-90894342D01*
X145785714Y-90894342D02*
X145738095Y-90989580D01*
X145738095Y-90989580D02*
X145690476Y-91037200D01*
X145690476Y-91037200D02*
X145595238Y-91084819D01*
X145595238Y-91084819D02*
X145309524Y-91084819D01*
X145309524Y-91084819D02*
X145214286Y-91037200D01*
X145214286Y-91037200D02*
X145166667Y-90989580D01*
X168833333Y-100584819D02*
X168500000Y-100108628D01*
X168261905Y-100584819D02*
X168261905Y-99584819D01*
X168261905Y-99584819D02*
X168642857Y-99584819D01*
X168642857Y-99584819D02*
X168738095Y-99632438D01*
X168738095Y-99632438D02*
X168785714Y-99680057D01*
X168785714Y-99680057D02*
X168833333Y-99775295D01*
X168833333Y-99775295D02*
X168833333Y-99918152D01*
X168833333Y-99918152D02*
X168785714Y-100013390D01*
X168785714Y-100013390D02*
X168738095Y-100061009D01*
X168738095Y-100061009D02*
X168642857Y-100108628D01*
X168642857Y-100108628D02*
X168261905Y-100108628D01*
X169214286Y-99680057D02*
X169261905Y-99632438D01*
X169261905Y-99632438D02*
X169357143Y-99584819D01*
X169357143Y-99584819D02*
X169595238Y-99584819D01*
X169595238Y-99584819D02*
X169690476Y-99632438D01*
X169690476Y-99632438D02*
X169738095Y-99680057D01*
X169738095Y-99680057D02*
X169785714Y-99775295D01*
X169785714Y-99775295D02*
X169785714Y-99870533D01*
X169785714Y-99870533D02*
X169738095Y-100013390D01*
X169738095Y-100013390D02*
X169166667Y-100584819D01*
X169166667Y-100584819D02*
X169785714Y-100584819D01*
X158333333Y-100584819D02*
X158000000Y-100108628D01*
X157761905Y-100584819D02*
X157761905Y-99584819D01*
X157761905Y-99584819D02*
X158142857Y-99584819D01*
X158142857Y-99584819D02*
X158238095Y-99632438D01*
X158238095Y-99632438D02*
X158285714Y-99680057D01*
X158285714Y-99680057D02*
X158333333Y-99775295D01*
X158333333Y-99775295D02*
X158333333Y-99918152D01*
X158333333Y-99918152D02*
X158285714Y-100013390D01*
X158285714Y-100013390D02*
X158238095Y-100061009D01*
X158238095Y-100061009D02*
X158142857Y-100108628D01*
X158142857Y-100108628D02*
X157761905Y-100108628D01*
X159285714Y-100584819D02*
X158714286Y-100584819D01*
X159000000Y-100584819D02*
X159000000Y-99584819D01*
X159000000Y-99584819D02*
X158904762Y-99727676D01*
X158904762Y-99727676D02*
X158809524Y-99822914D01*
X158809524Y-99822914D02*
X158714286Y-99870533D01*
X179761905Y-80994819D02*
X179761905Y-79994819D01*
X179761905Y-79994819D02*
X180000000Y-79994819D01*
X180000000Y-79994819D02*
X180142857Y-80042438D01*
X180142857Y-80042438D02*
X180238095Y-80137676D01*
X180238095Y-80137676D02*
X180285714Y-80232914D01*
X180285714Y-80232914D02*
X180333333Y-80423390D01*
X180333333Y-80423390D02*
X180333333Y-80566247D01*
X180333333Y-80566247D02*
X180285714Y-80756723D01*
X180285714Y-80756723D02*
X180238095Y-80851961D01*
X180238095Y-80851961D02*
X180142857Y-80947200D01*
X180142857Y-80947200D02*
X180000000Y-80994819D01*
X180000000Y-80994819D02*
X179761905Y-80994819D01*
X180714286Y-80090057D02*
X180761905Y-80042438D01*
X180761905Y-80042438D02*
X180857143Y-79994819D01*
X180857143Y-79994819D02*
X181095238Y-79994819D01*
X181095238Y-79994819D02*
X181190476Y-80042438D01*
X181190476Y-80042438D02*
X181238095Y-80090057D01*
X181238095Y-80090057D02*
X181285714Y-80185295D01*
X181285714Y-80185295D02*
X181285714Y-80280533D01*
X181285714Y-80280533D02*
X181238095Y-80423390D01*
X181238095Y-80423390D02*
X180666667Y-80994819D01*
X180666667Y-80994819D02*
X181285714Y-80994819D01*
X158333333Y-106609580D02*
X158285714Y-106657200D01*
X158285714Y-106657200D02*
X158142857Y-106704819D01*
X158142857Y-106704819D02*
X158047619Y-106704819D01*
X158047619Y-106704819D02*
X157904762Y-106657200D01*
X157904762Y-106657200D02*
X157809524Y-106561961D01*
X157809524Y-106561961D02*
X157761905Y-106466723D01*
X157761905Y-106466723D02*
X157714286Y-106276247D01*
X157714286Y-106276247D02*
X157714286Y-106133390D01*
X157714286Y-106133390D02*
X157761905Y-105942914D01*
X157761905Y-105942914D02*
X157809524Y-105847676D01*
X157809524Y-105847676D02*
X157904762Y-105752438D01*
X157904762Y-105752438D02*
X158047619Y-105704819D01*
X158047619Y-105704819D02*
X158142857Y-105704819D01*
X158142857Y-105704819D02*
X158285714Y-105752438D01*
X158285714Y-105752438D02*
X158333333Y-105800057D01*
X159285714Y-106704819D02*
X158714286Y-106704819D01*
X159000000Y-106704819D02*
X159000000Y-105704819D01*
X159000000Y-105704819D02*
X158904762Y-105847676D01*
X158904762Y-105847676D02*
X158809524Y-105942914D01*
X158809524Y-105942914D02*
X158714286Y-105990533D01*
X162833333Y-80359580D02*
X162785714Y-80407200D01*
X162785714Y-80407200D02*
X162642857Y-80454819D01*
X162642857Y-80454819D02*
X162547619Y-80454819D01*
X162547619Y-80454819D02*
X162404762Y-80407200D01*
X162404762Y-80407200D02*
X162309524Y-80311961D01*
X162309524Y-80311961D02*
X162261905Y-80216723D01*
X162261905Y-80216723D02*
X162214286Y-80026247D01*
X162214286Y-80026247D02*
X162214286Y-79883390D01*
X162214286Y-79883390D02*
X162261905Y-79692914D01*
X162261905Y-79692914D02*
X162309524Y-79597676D01*
X162309524Y-79597676D02*
X162404762Y-79502438D01*
X162404762Y-79502438D02*
X162547619Y-79454819D01*
X162547619Y-79454819D02*
X162642857Y-79454819D01*
X162642857Y-79454819D02*
X162785714Y-79502438D01*
X162785714Y-79502438D02*
X162833333Y-79550057D01*
X163214286Y-79550057D02*
X163261905Y-79502438D01*
X163261905Y-79502438D02*
X163357143Y-79454819D01*
X163357143Y-79454819D02*
X163595238Y-79454819D01*
X163595238Y-79454819D02*
X163690476Y-79502438D01*
X163690476Y-79502438D02*
X163738095Y-79550057D01*
X163738095Y-79550057D02*
X163785714Y-79645295D01*
X163785714Y-79645295D02*
X163785714Y-79740533D01*
X163785714Y-79740533D02*
X163738095Y-79883390D01*
X163738095Y-79883390D02*
X163166667Y-80454819D01*
X163166667Y-80454819D02*
X163785714Y-80454819D01*
X162743095Y-86314819D02*
X162743095Y-87124342D01*
X162743095Y-87124342D02*
X162790714Y-87219580D01*
X162790714Y-87219580D02*
X162838333Y-87267200D01*
X162838333Y-87267200D02*
X162933571Y-87314819D01*
X162933571Y-87314819D02*
X163124047Y-87314819D01*
X163124047Y-87314819D02*
X163219285Y-87267200D01*
X163219285Y-87267200D02*
X163266904Y-87219580D01*
X163266904Y-87219580D02*
X163314523Y-87124342D01*
X163314523Y-87124342D02*
X163314523Y-86314819D01*
X164314523Y-87314819D02*
X163743095Y-87314819D01*
X164028809Y-87314819D02*
X164028809Y-86314819D01*
X164028809Y-86314819D02*
X163933571Y-86457676D01*
X163933571Y-86457676D02*
X163838333Y-86552914D01*
X163838333Y-86552914D02*
X163743095Y-86600533D01*
X142991905Y-80494819D02*
X142991905Y-79494819D01*
X142991905Y-79494819D02*
X143230000Y-79494819D01*
X143230000Y-79494819D02*
X143372857Y-79542438D01*
X143372857Y-79542438D02*
X143468095Y-79637676D01*
X143468095Y-79637676D02*
X143515714Y-79732914D01*
X143515714Y-79732914D02*
X143563333Y-79923390D01*
X143563333Y-79923390D02*
X143563333Y-80066247D01*
X143563333Y-80066247D02*
X143515714Y-80256723D01*
X143515714Y-80256723D02*
X143468095Y-80351961D01*
X143468095Y-80351961D02*
X143372857Y-80447200D01*
X143372857Y-80447200D02*
X143230000Y-80494819D01*
X143230000Y-80494819D02*
X142991905Y-80494819D01*
X144515714Y-80494819D02*
X143944286Y-80494819D01*
X144230000Y-80494819D02*
X144230000Y-79494819D01*
X144230000Y-79494819D02*
X144134762Y-79637676D01*
X144134762Y-79637676D02*
X144039524Y-79732914D01*
X144039524Y-79732914D02*
X143944286Y-79780533D01*
%TO.C,J1*%
D24*
X147620000Y-109580000D02*
X149000000Y-109580000D01*
X147620000Y-110960000D02*
X147620000Y-109580000D01*
X147620000Y-112230000D02*
X147620000Y-114880000D01*
X147620000Y-112230000D02*
X150380000Y-112230000D01*
X147620000Y-114880000D02*
X150380000Y-114880000D01*
X150380000Y-112230000D02*
X150380000Y-114880000D01*
%TO.C,R4*%
X184270000Y-94370000D02*
X184270000Y-94040000D01*
X184270000Y-91630000D02*
X184270000Y-91960000D01*
X177730000Y-94370000D02*
X184270000Y-94370000D01*
X177730000Y-94040000D02*
X177730000Y-94370000D01*
X177730000Y-91960000D02*
X177730000Y-91630000D01*
X177730000Y-91630000D02*
X184270000Y-91630000D01*
%TO.C,R3*%
X148270000Y-94370000D02*
X148270000Y-94040000D01*
X148270000Y-91630000D02*
X148270000Y-91960000D01*
X141730000Y-94370000D02*
X148270000Y-94370000D01*
X141730000Y-94040000D02*
X141730000Y-94370000D01*
X141730000Y-91960000D02*
X141730000Y-91630000D01*
X141730000Y-91630000D02*
X148270000Y-91630000D01*
%TO.C,R2*%
X172270000Y-103870000D02*
X172270000Y-103540000D01*
X172270000Y-101130000D02*
X172270000Y-101460000D01*
X165730000Y-103870000D02*
X172270000Y-103870000D01*
X165730000Y-103540000D02*
X165730000Y-103870000D01*
X165730000Y-101460000D02*
X165730000Y-101130000D01*
X165730000Y-101130000D02*
X172270000Y-101130000D01*
%TO.C,R1*%
X161770000Y-103870000D02*
X161770000Y-103540000D01*
X161770000Y-101130000D02*
X161770000Y-101460000D01*
X155230000Y-103870000D02*
X161770000Y-103870000D01*
X155230000Y-103540000D02*
X155230000Y-103870000D01*
X155230000Y-101460000D02*
X155230000Y-101130000D01*
X155230000Y-101130000D02*
X161770000Y-101130000D01*
%TO.C,D2*%
X183000000Y-84500000D02*
G75*
G02*
X178000000Y-84500000I-2500000J0D01*
G01*
X178000000Y-84500000D02*
G75*
G02*
X183000000Y-84500000I2500000J0D01*
G01*
X183490000Y-84500000D02*
G75*
G02*
X177940000Y-86044830I-2990000J0D01*
G01*
X177940000Y-82955170D02*
G75*
G02*
X183490000Y-84500000I2560000J-1544830D01*
G01*
X177940000Y-82955000D02*
X177940000Y-86045000D01*
%TO.C,C1*%
X161120000Y-110000000D02*
G75*
G02*
X155880000Y-110000000I-2620000J0D01*
G01*
X155880000Y-110000000D02*
G75*
G02*
X161120000Y-110000000I2620000J0D01*
G01*
%TO.C,C2*%
X165620000Y-83870000D02*
X160380000Y-83870000D01*
X165620000Y-83533000D02*
X165620000Y-83870000D01*
X165620000Y-81130000D02*
X165620000Y-81467000D01*
X160380000Y-83870000D02*
X160380000Y-83533000D01*
X160380000Y-81467000D02*
X160380000Y-81130000D01*
X160380000Y-81130000D02*
X165620000Y-81130000D01*
%TO.C,U1*%
X164505000Y-87860000D02*
G75*
G02*
X162505000Y-87860000I-1000000J0D01*
G01*
X166155000Y-98140000D02*
X166155000Y-87860000D01*
X166155000Y-87860000D02*
X164505000Y-87860000D01*
X162505000Y-87860000D02*
X160855000Y-87860000D01*
X160855000Y-98140000D02*
X166155000Y-98140000D01*
X160855000Y-87860000D02*
X160855000Y-98140000D01*
%TO.C,D1*%
X146230000Y-84000000D02*
G75*
G02*
X141230000Y-84000000I-2500000J0D01*
G01*
X141230000Y-84000000D02*
G75*
G02*
X146230000Y-84000000I2500000J0D01*
G01*
X146720000Y-84000000D02*
G75*
G02*
X141170000Y-85544830I-2990000J0D01*
G01*
X141170000Y-82455170D02*
G75*
G02*
X146720000Y-84000000I2560000J-1544830D01*
G01*
X141170000Y-82455000D02*
X141170000Y-85545000D01*
%TD*%
D25*
X139500000Y-78500000D02*
X189500000Y-78500000D01*
X189500000Y-118500000D01*
X139500000Y-118500000D01*
X139500000Y-78500000D01*
M02*
