%TF.GenerationSoftware,KiCad,Pcbnew,10.0.3*%
%TF.CreationDate,2026-06-02T13:02:36+05:30*%
%TF.ProjectId,automatic street light controller,6175746f-6d61-4746-9963-207374726565,rev?*%
%TF.SameCoordinates,Original*%
%TF.FileFunction,Copper,L1,Top*%
%TF.FilePolarity,Positive*%
%FSLAX46Y46*%
G04 Gerber Fmt 4.6, Leading zero omitted, Abs format (unit mm)*
G04 Created by KiCad (PCBNEW 10.0.3) date 2026-06-02 13:02:36*
%MOMM*%
%LPD*%
G01*
G04 APERTURE LIST*
%TA.AperFunction,Conductor*%
%ADD10C,0.200000*%
%TD*%
%TA.AperFunction,ComponentPad*%
%ADD11C,1.600000*%
%TD*%
%TA.AperFunction,ComponentPad*%
%ADD12C,1.500000*%
%TD*%
%TA.AperFunction,ComponentPad*%
%ADD13R,1.050000X1.500000*%
%TD*%
%TA.AperFunction,ComponentPad*%
%ADD14O,1.050000X1.500000*%
%TD*%
%TA.AperFunction,ComponentPad*%
%ADD15R,1.700000X1.700000*%
%TD*%
%TA.AperFunction,ComponentPad*%
%ADD16C,1.700000*%
%TD*%
%TA.AperFunction,ComponentPad*%
%ADD17R,1.800000X1.800000*%
%TD*%
%TA.AperFunction,ComponentPad*%
%ADD18C,1.800000*%
%TD*%
G04 APERTURE END LIST*
%TO.N,Net-(D1-A)*%
D10*
X143500000Y-84000000D02*
X143500000Y-84500000D01*
X143500000Y-84000000D01*
%TD*%
D11*
%TO.P,R3,1*%
%TO.N,Net-(D1-A)*%
X143190000Y-84500000D03*
%TO.P,R3,2*%
%TO.N,VCC*%
X150810000Y-84500000D03*
%TD*%
%TO.P,R2,1*%
%TO.N,Net-(Q1-B)*%
X141690000Y-103000000D03*
%TO.P,R2,2*%
%TO.N,GND*%
X149310000Y-103000000D03*
%TD*%
D12*
%TO.P,R1,1*%
%TO.N,VCC*%
X133800000Y-102500000D03*
%TO.P,R1,2*%
%TO.N,Net-(Q1-B)*%
X137200000Y-102500000D03*
%TD*%
D13*
%TO.P,Q1,1,B_1*%
%TO.N,Net-(Q1-B)*%
X140730000Y-95360000D03*
D14*
%TO.P,Q1,2,C_2*%
%TO.N,Net-(D1-K)*%
X142000000Y-95360000D03*
%TO.P,Q1,3,E_3*%
%TO.N,GND*%
X143270000Y-95360000D03*
%TD*%
D15*
%TO.P,J1,1,Pin_1_1*%
%TO.N,VCC*%
X148500000Y-108225000D03*
D16*
%TO.P,J1,2,Pin_2_2*%
%TO.N,GND*%
X148500000Y-110765000D03*
%TD*%
D17*
%TO.P,D1,1,K_1*%
%TO.N,Net-(D1-K)*%
X137225000Y-85500000D03*
D18*
%TO.P,D1,2,A_2*%
%TO.N,Net-(D1-A)*%
X139765000Y-85500000D03*
%TD*%
%TO.N,VCC*%
D10*
X149650000Y-111241346D02*
X149650000Y-109375000D01*
X143215000Y-111915000D02*
X148976346Y-111915000D01*
X133800000Y-102500000D02*
X143215000Y-111915000D01*
X148976346Y-111915000D02*
X149650000Y-111241346D01*
X149650000Y-109375000D02*
X148500000Y-108225000D01*
%TO.N,GND*%
X147350000Y-109615000D02*
X148500000Y-110765000D01*
X147350000Y-104960000D02*
X147350000Y-109615000D01*
X149310000Y-103000000D02*
X147350000Y-104960000D01*
%TO.N,VCC*%
X148500000Y-105365635D02*
X148500000Y-108225000D01*
X150810000Y-103055635D02*
X148500000Y-105365635D01*
X150810000Y-84500000D02*
X150810000Y-103055635D01*
%TO.N,GND*%
X143270000Y-96960000D02*
X149310000Y-103000000D01*
X143270000Y-95360000D02*
X143270000Y-96960000D01*
%TO.N,Net-(Q1-B)*%
X141190000Y-102500000D02*
X141690000Y-103000000D01*
X137200000Y-102500000D02*
X141190000Y-102500000D01*
X140730000Y-102040000D02*
X141690000Y-103000000D01*
X140730000Y-95360000D02*
X140730000Y-102040000D01*
%TO.N,Net-(D1-K)*%
X137225000Y-85500000D02*
X142000000Y-90275000D01*
X142000000Y-90275000D02*
X142000000Y-95360000D01*
%TO.N,Net-(D1-A)*%
X140765000Y-84500000D02*
X139765000Y-85500000D01*
X143190000Y-84500000D02*
X140765000Y-84500000D01*
%TD*%
%TA.AperFunction,Conductor*%
%TO.N,GND*%
G36*
X152942539Y-81020185D02*
G01*
X152988294Y-81072989D01*
X152999500Y-81124500D01*
X152999500Y-82875500D01*
X152979815Y-82942539D01*
X152927011Y-82988294D01*
X152875500Y-82999500D01*
X152434108Y-82999500D01*
X152306812Y-83033608D01*
X152192686Y-83099500D01*
X152192683Y-83099502D01*
X152099502Y-83192683D01*
X152099500Y-83192686D01*
X152033608Y-83306812D01*
X151999500Y-83434108D01*
X151999500Y-83550953D01*
X151979815Y-83617992D01*
X151927011Y-83663747D01*
X151857853Y-83673691D01*
X151794297Y-83644666D01*
X151787819Y-83638634D01*
X151657213Y-83508028D01*
X151491613Y-83387715D01*
X151491612Y-83387714D01*
X151491610Y-83387713D01*
X151434653Y-83358691D01*
X151309223Y-83294781D01*
X151114534Y-83231522D01*
X150939995Y-83203878D01*
X150912352Y-83199500D01*
X150707648Y-83199500D01*
X150683329Y-83203351D01*
X150505465Y-83231522D01*
X150310776Y-83294781D01*
X150128386Y-83387715D01*
X149962786Y-83508028D01*
X149818028Y-83652786D01*
X149697715Y-83818386D01*
X149604781Y-84000776D01*
X149541522Y-84195465D01*
X149509500Y-84397648D01*
X149509500Y-84602351D01*
X149541522Y-84804534D01*
X149604781Y-84999223D01*
X149656385Y-85100500D01*
X149694143Y-85174604D01*
X149697715Y-85181613D01*
X149818028Y-85347213D01*
X149818034Y-85347219D01*
X149962781Y-85491966D01*
X150128390Y-85612287D01*
X150141793Y-85619116D01*
X150192589Y-85667088D01*
X150209500Y-85729601D01*
X150209500Y-101803272D01*
X150189815Y-101870311D01*
X150137011Y-101916066D01*
X150067853Y-101926010D01*
X150012615Y-101903590D01*
X149991352Y-101888142D01*
X149809031Y-101795244D01*
X149614417Y-101732009D01*
X149412317Y-101700000D01*
X149207683Y-101700000D01*
X149005582Y-101732009D01*
X148810968Y-101795244D01*
X148628644Y-101888143D01*
X148584077Y-101920523D01*
X148584077Y-101920524D01*
X149263553Y-102600000D01*
X149257339Y-102600000D01*
X149155606Y-102627259D01*
X149064394Y-102679920D01*
X148989920Y-102754394D01*
X148937259Y-102845606D01*
X148910000Y-102947339D01*
X148910000Y-102953553D01*
X148230524Y-102274077D01*
X148230523Y-102274077D01*
X148198143Y-102318644D01*
X148105244Y-102500968D01*
X148042009Y-102695582D01*
X148010000Y-102897682D01*
X148010000Y-103102317D01*
X148042009Y-103304417D01*
X148105244Y-103499031D01*
X148198141Y-103681350D01*
X148198147Y-103681359D01*
X148230523Y-103725921D01*
X148230524Y-103725922D01*
X148910000Y-103046446D01*
X148910000Y-103052661D01*
X148937259Y-103154394D01*
X148989920Y-103245606D01*
X149064394Y-103320080D01*
X149155606Y-103372741D01*
X149257339Y-103400000D01*
X149263552Y-103400000D01*
X148584076Y-104079474D01*
X148628655Y-104111863D01*
X148659346Y-104127501D01*
X148710142Y-104175475D01*
X148726937Y-104243296D01*
X148704399Y-104309431D01*
X148690732Y-104325666D01*
X148131286Y-104885113D01*
X148019481Y-104996917D01*
X148019479Y-104996920D01*
X147969361Y-105083729D01*
X147969359Y-105083731D01*
X147940425Y-105133844D01*
X147940424Y-105133845D01*
X147940423Y-105133850D01*
X147899499Y-105286578D01*
X147899499Y-105286580D01*
X147899499Y-105454681D01*
X147899500Y-105454694D01*
X147899500Y-106750500D01*
X147879815Y-106817539D01*
X147827011Y-106863294D01*
X147775501Y-106874500D01*
X147602130Y-106874500D01*
X147602123Y-106874501D01*
X147542516Y-106880908D01*
X147407671Y-106931202D01*
X147407664Y-106931206D01*
X147292455Y-107017452D01*
X147292452Y-107017455D01*
X147206206Y-107132664D01*
X147206202Y-107132671D01*
X147155908Y-107267517D01*
X147149501Y-107327116D01*
X147149501Y-107327123D01*
X147149500Y-107327135D01*
X147149500Y-109122870D01*
X147149501Y-109122876D01*
X147155908Y-109182483D01*
X147206202Y-109317328D01*
X147206206Y-109317335D01*
X147292452Y-109432544D01*
X147292455Y-109432547D01*
X147407664Y-109518793D01*
X147407671Y-109518797D01*
X147452618Y-109535561D01*
X147542517Y-109569091D01*
X147602127Y-109575500D01*
X147612685Y-109575499D01*
X147679723Y-109595179D01*
X147700372Y-109611818D01*
X148370591Y-110282037D01*
X148307007Y-110299075D01*
X148192993Y-110364901D01*
X148099901Y-110457993D01*
X148034075Y-110572007D01*
X148017037Y-110635591D01*
X147384728Y-110003282D01*
X147384727Y-110003282D01*
X147345380Y-110057439D01*
X147248904Y-110246782D01*
X147183242Y-110448869D01*
X147183242Y-110448872D01*
X147150000Y-110658753D01*
X147150000Y-110871246D01*
X147183242Y-111081127D01*
X147183242Y-111081130D01*
X147206329Y-111152182D01*
X147208324Y-111222023D01*
X147172244Y-111281856D01*
X147109543Y-111312684D01*
X147088398Y-111314500D01*
X143515098Y-111314500D01*
X143448059Y-111294815D01*
X143427417Y-111278181D01*
X135053768Y-102904533D01*
X135020283Y-102843210D01*
X135018976Y-102797454D01*
X135050500Y-102598422D01*
X135050500Y-102401577D01*
X135019709Y-102207173D01*
X134958882Y-102019970D01*
X134911007Y-101926010D01*
X134869524Y-101844595D01*
X134753828Y-101685354D01*
X134614646Y-101546172D01*
X134455405Y-101430476D01*
X134280029Y-101341117D01*
X134092826Y-101280290D01*
X133898422Y-101249500D01*
X133898417Y-101249500D01*
X133701583Y-101249500D01*
X133701578Y-101249500D01*
X133507173Y-101280290D01*
X133319970Y-101341117D01*
X133144594Y-101430476D01*
X133053741Y-101496485D01*
X132985354Y-101546172D01*
X132985352Y-101546174D01*
X132985351Y-101546174D01*
X132846174Y-101685351D01*
X132846174Y-101685352D01*
X132846172Y-101685354D01*
X132835531Y-101700000D01*
X132730476Y-101844594D01*
X132641117Y-102019970D01*
X132580290Y-102207173D01*
X132549500Y-102401577D01*
X132549500Y-102598422D01*
X132580290Y-102792826D01*
X132641117Y-102980029D01*
X132719921Y-103134690D01*
X132730476Y-103155405D01*
X132846172Y-103314646D01*
X132985354Y-103453828D01*
X133144595Y-103569524D01*
X133227455Y-103611743D01*
X133319970Y-103658882D01*
X133319972Y-103658882D01*
X133319975Y-103658884D01*
X133420317Y-103691487D01*
X133507173Y-103719709D01*
X133701578Y-103750500D01*
X133701583Y-103750500D01*
X133898422Y-103750500D01*
X134097454Y-103718976D01*
X134166747Y-103727930D01*
X134204532Y-103753767D01*
X142846284Y-112395520D01*
X142846286Y-112395521D01*
X142846290Y-112395524D01*
X142983209Y-112474573D01*
X142983216Y-112474577D01*
X143135943Y-112515501D01*
X143135945Y-112515501D01*
X143301654Y-112515501D01*
X143301670Y-112515500D01*
X148889677Y-112515500D01*
X148889693Y-112515501D01*
X148897289Y-112515501D01*
X149055400Y-112515501D01*
X149055403Y-112515501D01*
X149208131Y-112474577D01*
X149258250Y-112445639D01*
X149345062Y-112395520D01*
X149456866Y-112283716D01*
X149456866Y-112283714D01*
X149467074Y-112273507D01*
X149467075Y-112273504D01*
X150130520Y-111610062D01*
X150209577Y-111473130D01*
X150250501Y-111320403D01*
X150250501Y-111162288D01*
X150250501Y-111154693D01*
X150250500Y-111154675D01*
X150250500Y-109464060D01*
X150250501Y-109464047D01*
X150250501Y-109295944D01*
X150250501Y-109295943D01*
X150209577Y-109143216D01*
X150197834Y-109122876D01*
X150130524Y-109006290D01*
X150130518Y-109006282D01*
X149886818Y-108762582D01*
X149853333Y-108701259D01*
X149850499Y-108674901D01*
X149850499Y-107327129D01*
X149850498Y-107327123D01*
X149850497Y-107327116D01*
X149844091Y-107267517D01*
X149793796Y-107132669D01*
X149793795Y-107132668D01*
X149793793Y-107132664D01*
X149707547Y-107017455D01*
X149707544Y-107017452D01*
X149592335Y-106931206D01*
X149592328Y-106931202D01*
X149457482Y-106880908D01*
X149457483Y-106880908D01*
X149397883Y-106874501D01*
X149397881Y-106874500D01*
X149397873Y-106874500D01*
X149397865Y-106874500D01*
X149224500Y-106874500D01*
X149157461Y-106854815D01*
X149111706Y-106802011D01*
X149100500Y-106750500D01*
X149100500Y-105665731D01*
X149120185Y-105598692D01*
X149136814Y-105578055D01*
X151168506Y-103546362D01*
X151168511Y-103546359D01*
X151178714Y-103536155D01*
X151178716Y-103536155D01*
X151290520Y-103424351D01*
X151369577Y-103287419D01*
X151410500Y-103134692D01*
X151410500Y-85729601D01*
X151430185Y-85662562D01*
X151478206Y-85619116D01*
X151491610Y-85612287D01*
X151657219Y-85491966D01*
X151801966Y-85347219D01*
X151801968Y-85347215D01*
X151801971Y-85347213D01*
X151877032Y-85243898D01*
X151922287Y-85181610D01*
X152015220Y-84999219D01*
X152078477Y-84804534D01*
X152110500Y-84602352D01*
X152110500Y-84567824D01*
X152130185Y-84500785D01*
X152182989Y-84455030D01*
X152252147Y-84445086D01*
X152296501Y-84460438D01*
X152306814Y-84466392D01*
X152434108Y-84500500D01*
X152565892Y-84500500D01*
X152875500Y-84500500D01*
X152942539Y-84520185D01*
X152988294Y-84572989D01*
X152999500Y-84624500D01*
X152999500Y-114375500D01*
X152979815Y-114442539D01*
X152927011Y-114488294D01*
X152875500Y-114499500D01*
X132124500Y-114499500D01*
X132057461Y-114479815D01*
X132011706Y-114427011D01*
X132000500Y-114375500D01*
X132000500Y-84552135D01*
X135824500Y-84552135D01*
X135824500Y-86447870D01*
X135824501Y-86447876D01*
X135830908Y-86507483D01*
X135881202Y-86642328D01*
X135881206Y-86642335D01*
X135967452Y-86757544D01*
X135967455Y-86757547D01*
X136082664Y-86843793D01*
X136082671Y-86843797D01*
X136217517Y-86894091D01*
X136217516Y-86894091D01*
X136224444Y-86894835D01*
X136277127Y-86900500D01*
X137724901Y-86900499D01*
X137791940Y-86920184D01*
X137812582Y-86936818D01*
X141363181Y-90487416D01*
X141396666Y-90548739D01*
X141399500Y-90575097D01*
X141399500Y-93985500D01*
X141379815Y-94052539D01*
X141327011Y-94098294D01*
X141275500Y-94109500D01*
X140157129Y-94109500D01*
X140157123Y-94109501D01*
X140097516Y-94115908D01*
X139962671Y-94166202D01*
X139962664Y-94166206D01*
X139847455Y-94252452D01*
X139847452Y-94252455D01*
X139761206Y-94367664D01*
X139761202Y-94367671D01*
X139710908Y-94502517D01*
X139704501Y-94562116D01*
X139704500Y-94562135D01*
X139704500Y-96157870D01*
X139704501Y-96157876D01*
X139710908Y-96217483D01*
X139761202Y-96352328D01*
X139761206Y-96352335D01*
X139847452Y-96467544D01*
X139847455Y-96467547D01*
X139962664Y-96553793D01*
X139962671Y-96553797D01*
X140048833Y-96585933D01*
X140104766Y-96627804D01*
X140129184Y-96693268D01*
X140129500Y-96702115D01*
X140129500Y-101775500D01*
X140109815Y-101842539D01*
X140057011Y-101888294D01*
X140005500Y-101899500D01*
X138372596Y-101899500D01*
X138305557Y-101879815D01*
X138272278Y-101848386D01*
X138268030Y-101842539D01*
X138153828Y-101685354D01*
X138014646Y-101546172D01*
X137855405Y-101430476D01*
X137680029Y-101341117D01*
X137492826Y-101280290D01*
X137298422Y-101249500D01*
X137298417Y-101249500D01*
X137101583Y-101249500D01*
X137101578Y-101249500D01*
X136907173Y-101280290D01*
X136719970Y-101341117D01*
X136544594Y-101430476D01*
X136453741Y-101496485D01*
X136385354Y-101546172D01*
X136385352Y-101546174D01*
X136385351Y-101546174D01*
X136246174Y-101685351D01*
X136246174Y-101685352D01*
X136246172Y-101685354D01*
X136235531Y-101700000D01*
X136130476Y-101844594D01*
X136041117Y-102019970D01*
X135980290Y-102207173D01*
X135949500Y-102401577D01*
X135949500Y-102598422D01*
X135980290Y-102792826D01*
X136041117Y-102980029D01*
X136119921Y-103134690D01*
X136130476Y-103155405D01*
X136246172Y-103314646D01*
X136385354Y-103453828D01*
X136544595Y-103569524D01*
X136627455Y-103611743D01*
X136719970Y-103658882D01*
X136719972Y-103658882D01*
X136719975Y-103658884D01*
X136820317Y-103691487D01*
X136907173Y-103719709D01*
X137101578Y-103750500D01*
X137101583Y-103750500D01*
X137298422Y-103750500D01*
X137492826Y-103719709D01*
X137495082Y-103718976D01*
X137680025Y-103658884D01*
X137855405Y-103569524D01*
X138014646Y-103453828D01*
X138153828Y-103314646D01*
X138269524Y-103155405D01*
X138269524Y-103155403D01*
X138272278Y-103151614D01*
X138327608Y-103108949D01*
X138372596Y-103100500D01*
X140283301Y-103100500D01*
X140350340Y-103120185D01*
X140396095Y-103172989D01*
X140405774Y-103205102D01*
X140421522Y-103304534D01*
X140484781Y-103499223D01*
X140520602Y-103569524D01*
X140577585Y-103681359D01*
X140577715Y-103681613D01*
X140698028Y-103847213D01*
X140842786Y-103991971D01*
X140963226Y-104079474D01*
X141008390Y-104112287D01*
X141124607Y-104171503D01*
X141190776Y-104205218D01*
X141190778Y-104205218D01*
X141190781Y-104205220D01*
X141295137Y-104239127D01*
X141385465Y-104268477D01*
X141486557Y-104284488D01*
X141587648Y-104300500D01*
X141587649Y-104300500D01*
X141792351Y-104300500D01*
X141792352Y-104300500D01*
X141994534Y-104268477D01*
X142189219Y-104205220D01*
X142371610Y-104112287D01*
X142464590Y-104044732D01*
X142537213Y-103991971D01*
X142537215Y-103991968D01*
X142537219Y-103991966D01*
X142681966Y-103847219D01*
X142681968Y-103847215D01*
X142681971Y-103847213D01*
X142734732Y-103774590D01*
X142802287Y-103681610D01*
X142895220Y-103499219D01*
X142958477Y-103304534D01*
X142990500Y-103102352D01*
X142990500Y-102897648D01*
X142973898Y-102792826D01*
X142958477Y-102695465D01*
X142926944Y-102598417D01*
X142895220Y-102500781D01*
X142895218Y-102500778D01*
X142895218Y-102500776D01*
X142844673Y-102401577D01*
X142802287Y-102318390D01*
X142721485Y-102207174D01*
X142681971Y-102152786D01*
X142537213Y-102008028D01*
X142371613Y-101887715D01*
X142371612Y-101887714D01*
X142371610Y-101887713D01*
X142294427Y-101848386D01*
X142189223Y-101794781D01*
X141994534Y-101731522D01*
X141819995Y-101703878D01*
X141792352Y-101699500D01*
X141587648Y-101699500D01*
X141473897Y-101717516D01*
X141404604Y-101708561D01*
X141351152Y-101663565D01*
X141330513Y-101596813D01*
X141330500Y-101595043D01*
X141330500Y-96702115D01*
X141336021Y-96683311D01*
X141336594Y-96663720D01*
X141345663Y-96650475D01*
X141350185Y-96635076D01*
X141364994Y-96622243D01*
X141376069Y-96606070D01*
X141398534Y-96593180D01*
X141402989Y-96589321D01*
X141406305Y-96587864D01*
X141408710Y-96586849D01*
X141497331Y-96553796D01*
X141510580Y-96543877D01*
X141524551Y-96537984D01*
X141544796Y-96535674D01*
X141563887Y-96528552D01*
X141581798Y-96531453D01*
X141593971Y-96530065D01*
X141604138Y-96535072D01*
X141620198Y-96537673D01*
X141700873Y-96571091D01*
X141866777Y-96604091D01*
X141898992Y-96610499D01*
X141898996Y-96610500D01*
X141898997Y-96610500D01*
X142101004Y-96610500D01*
X142101005Y-96610499D01*
X142299127Y-96571091D01*
X142485756Y-96493786D01*
X142566562Y-96439792D01*
X142633234Y-96418917D01*
X142700614Y-96437401D01*
X142704340Y-96439795D01*
X142784479Y-96493343D01*
X142784486Y-96493347D01*
X142971016Y-96570609D01*
X142971025Y-96570612D01*
X143020000Y-96580353D01*
X143020000Y-95725865D01*
X143020067Y-95721789D01*
X143020400Y-95711638D01*
X143025500Y-95686003D01*
X143025500Y-95645830D01*
X143039745Y-95660075D01*
X143125255Y-95709444D01*
X143220630Y-95735000D01*
X143319370Y-95735000D01*
X143414745Y-95709444D01*
X143500255Y-95660075D01*
X143520000Y-95640330D01*
X143520000Y-96580352D01*
X143568974Y-96570612D01*
X143568983Y-96570609D01*
X143755513Y-96493347D01*
X143755526Y-96493340D01*
X143923399Y-96381170D01*
X143923403Y-96381167D01*
X144066167Y-96238403D01*
X144066170Y-96238399D01*
X144178340Y-96070526D01*
X144178347Y-96070513D01*
X144255609Y-95883983D01*
X144255612Y-95883974D01*
X144294999Y-95685958D01*
X144295000Y-95685955D01*
X144295000Y-95610000D01*
X143550330Y-95610000D01*
X143570075Y-95590255D01*
X143619444Y-95504745D01*
X143645000Y-95409370D01*
X143645000Y-95310630D01*
X143619444Y-95215255D01*
X143570075Y-95129745D01*
X143550330Y-95110000D01*
X144295000Y-95110000D01*
X144295000Y-95034045D01*
X144294999Y-95034041D01*
X144255612Y-94836025D01*
X144255609Y-94836016D01*
X144178347Y-94649486D01*
X144178340Y-94649473D01*
X144066170Y-94481600D01*
X144066167Y-94481596D01*
X143923403Y-94338832D01*
X143923399Y-94338829D01*
X143755526Y-94226659D01*
X143755513Y-94226652D01*
X143568984Y-94149390D01*
X143568977Y-94149388D01*
X143520000Y-94139645D01*
X143520000Y-95079670D01*
X143500255Y-95059925D01*
X143414745Y-95010556D01*
X143319370Y-94985000D01*
X143220630Y-94985000D01*
X143125255Y-95010556D01*
X143039745Y-95059925D01*
X143025500Y-95074170D01*
X143025500Y-95033997D01*
X143022383Y-95018326D01*
X143020000Y-94994134D01*
X143020000Y-94139646D01*
X143019999Y-94139645D01*
X142971022Y-94149388D01*
X142971015Y-94149390D01*
X142784478Y-94226656D01*
X142782946Y-94227475D01*
X142782052Y-94227661D01*
X142778851Y-94228987D01*
X142778599Y-94228379D01*
X142714542Y-94241713D01*
X142649300Y-94216708D01*
X142607933Y-94160400D01*
X142600500Y-94118113D01*
X142600500Y-90364060D01*
X142600501Y-90364047D01*
X142600501Y-90195944D01*
X142559576Y-90043214D01*
X142559573Y-90043209D01*
X142480524Y-89906290D01*
X142480518Y-89906282D01*
X139686416Y-87112181D01*
X139652931Y-87050858D01*
X139657915Y-86981166D01*
X139699787Y-86925233D01*
X139765251Y-86900816D01*
X139774097Y-86900500D01*
X139875221Y-86900500D01*
X139875222Y-86900500D01*
X140092951Y-86866015D01*
X140302606Y-86797895D01*
X140499022Y-86697815D01*
X140677365Y-86568242D01*
X140833242Y-86412365D01*
X140962815Y-86234022D01*
X141062895Y-86037606D01*
X141131015Y-85827951D01*
X141165500Y-85610222D01*
X141165500Y-85389778D01*
X141142395Y-85243898D01*
X141151350Y-85174604D01*
X141196346Y-85121152D01*
X141263098Y-85100513D01*
X141264868Y-85100500D01*
X141960398Y-85100500D01*
X142027437Y-85120185D01*
X142070882Y-85168204D01*
X142074143Y-85174604D01*
X142077715Y-85181614D01*
X142198028Y-85347213D01*
X142342786Y-85491971D01*
X142497749Y-85604556D01*
X142508390Y-85612287D01*
X142589499Y-85653614D01*
X142690776Y-85705218D01*
X142690778Y-85705218D01*
X142690781Y-85705220D01*
X142765818Y-85729601D01*
X142885465Y-85768477D01*
X142986557Y-85784488D01*
X143087648Y-85800500D01*
X143087649Y-85800500D01*
X143292351Y-85800500D01*
X143292352Y-85800500D01*
X143494534Y-85768477D01*
X143689219Y-85705220D01*
X143871610Y-85612287D01*
X143964590Y-85544732D01*
X144037213Y-85491971D01*
X144037215Y-85491968D01*
X144037219Y-85491966D01*
X144181966Y-85347219D01*
X144181968Y-85347215D01*
X144181971Y-85347213D01*
X144257032Y-85243898D01*
X144302287Y-85181610D01*
X144395220Y-84999219D01*
X144458477Y-84804534D01*
X144490500Y-84602352D01*
X144490500Y-84397648D01*
X144474942Y-84299418D01*
X144458477Y-84195465D01*
X144401296Y-84019481D01*
X144395220Y-84000781D01*
X144395218Y-84000778D01*
X144395218Y-84000776D01*
X144361503Y-83934607D01*
X144302287Y-83818390D01*
X144294556Y-83807749D01*
X144181971Y-83652786D01*
X144037213Y-83508028D01*
X143871613Y-83387715D01*
X143871612Y-83387714D01*
X143871610Y-83387713D01*
X143814653Y-83358691D01*
X143689223Y-83294781D01*
X143494534Y-83231522D01*
X143319995Y-83203878D01*
X143292352Y-83199500D01*
X143087648Y-83199500D01*
X143063329Y-83203351D01*
X142885465Y-83231522D01*
X142690776Y-83294781D01*
X142508386Y-83387715D01*
X142342786Y-83508028D01*
X142198028Y-83652786D01*
X142077715Y-83818385D01*
X142070883Y-83831795D01*
X142022909Y-83882591D01*
X141960398Y-83899500D01*
X140851670Y-83899500D01*
X140851654Y-83899499D01*
X140844058Y-83899499D01*
X140685943Y-83899499D01*
X140609579Y-83919961D01*
X140533214Y-83940423D01*
X140533209Y-83940426D01*
X140396290Y-84019475D01*
X140396282Y-84019481D01*
X140289200Y-84126561D01*
X140227876Y-84160046D01*
X140163203Y-84156810D01*
X140092953Y-84133985D01*
X140092954Y-84133985D01*
X139929654Y-84108121D01*
X139875222Y-84099500D01*
X139654778Y-84099500D01*
X139582201Y-84110995D01*
X139437047Y-84133985D01*
X139227396Y-84202103D01*
X139227393Y-84202104D01*
X139030974Y-84302187D01*
X138852641Y-84431752D01*
X138852636Y-84431756D01*
X138802463Y-84481929D01*
X138741140Y-84515413D01*
X138671448Y-84510428D01*
X138615515Y-84468557D01*
X138598601Y-84437580D01*
X138568797Y-84357671D01*
X138568793Y-84357664D01*
X138482547Y-84242455D01*
X138482544Y-84242452D01*
X138367335Y-84156206D01*
X138367328Y-84156202D01*
X138232482Y-84105908D01*
X138232483Y-84105908D01*
X138172883Y-84099501D01*
X138172881Y-84099500D01*
X138172873Y-84099500D01*
X138172864Y-84099500D01*
X136277129Y-84099500D01*
X136277123Y-84099501D01*
X136217516Y-84105908D01*
X136082671Y-84156202D01*
X136082664Y-84156206D01*
X135967455Y-84242452D01*
X135967452Y-84242455D01*
X135881206Y-84357664D01*
X135881202Y-84357671D01*
X135830908Y-84492517D01*
X135824501Y-84552116D01*
X135824500Y-84552135D01*
X132000500Y-84552135D01*
X132000500Y-81124500D01*
X132020185Y-81057461D01*
X132072989Y-81011706D01*
X132124500Y-81000500D01*
X152875500Y-81000500D01*
X152942539Y-81020185D01*
G37*
%TD.AperFunction*%
%TD*%
M02*
