%TF.GenerationSoftware,KiCad,Pcbnew,10.0.3*%
%TF.CreationDate,2026-06-02T13:02:36+05:30*%
%TF.ProjectId,automatic street light controller,6175746f-6d61-4746-9963-207374726565,rev?*%
%TF.SameCoordinates,Original*%
%TF.FileFunction,Legend,Top*%
%TF.FilePolarity,Positive*%
%FSLAX46Y46*%
G04 Gerber Fmt 4.6, Leading zero omitted, Abs format (unit mm)*
G04 Created by KiCad (PCBNEW 10.0.3) date 2026-06-02 13:02:36*
%MOMM*%
%LPD*%
G01*
G04 APERTURE LIST*
%ADD10C,0.150000*%
%ADD11C,0.120000*%
G04 APERTURE END LIST*
D10*
X146833333Y-82584819D02*
X146500000Y-82108628D01*
X146261905Y-82584819D02*
X146261905Y-81584819D01*
X146261905Y-81584819D02*
X146642857Y-81584819D01*
X146642857Y-81584819D02*
X146738095Y-81632438D01*
X146738095Y-81632438D02*
X146785714Y-81680057D01*
X146785714Y-81680057D02*
X146833333Y-81775295D01*
X146833333Y-81775295D02*
X146833333Y-81918152D01*
X146833333Y-81918152D02*
X146785714Y-82013390D01*
X146785714Y-82013390D02*
X146738095Y-82061009D01*
X146738095Y-82061009D02*
X146642857Y-82108628D01*
X146642857Y-82108628D02*
X146261905Y-82108628D01*
X147166667Y-81584819D02*
X147785714Y-81584819D01*
X147785714Y-81584819D02*
X147452381Y-81965771D01*
X147452381Y-81965771D02*
X147595238Y-81965771D01*
X147595238Y-81965771D02*
X147690476Y-82013390D01*
X147690476Y-82013390D02*
X147738095Y-82061009D01*
X147738095Y-82061009D02*
X147785714Y-82156247D01*
X147785714Y-82156247D02*
X147785714Y-82394342D01*
X147785714Y-82394342D02*
X147738095Y-82489580D01*
X147738095Y-82489580D02*
X147690476Y-82537200D01*
X147690476Y-82537200D02*
X147595238Y-82584819D01*
X147595238Y-82584819D02*
X147309524Y-82584819D01*
X147309524Y-82584819D02*
X147214286Y-82537200D01*
X147214286Y-82537200D02*
X147166667Y-82489580D01*
X139833333Y-101454819D02*
X139500000Y-100978628D01*
X139261905Y-101454819D02*
X139261905Y-100454819D01*
X139261905Y-100454819D02*
X139642857Y-100454819D01*
X139642857Y-100454819D02*
X139738095Y-100502438D01*
X139738095Y-100502438D02*
X139785714Y-100550057D01*
X139785714Y-100550057D02*
X139833333Y-100645295D01*
X139833333Y-100645295D02*
X139833333Y-100788152D01*
X139833333Y-100788152D02*
X139785714Y-100883390D01*
X139785714Y-100883390D02*
X139738095Y-100931009D01*
X139738095Y-100931009D02*
X139642857Y-100978628D01*
X139642857Y-100978628D02*
X139261905Y-100978628D01*
X140214286Y-100550057D02*
X140261905Y-100502438D01*
X140261905Y-100502438D02*
X140357143Y-100454819D01*
X140357143Y-100454819D02*
X140595238Y-100454819D01*
X140595238Y-100454819D02*
X140690476Y-100502438D01*
X140690476Y-100502438D02*
X140738095Y-100550057D01*
X140738095Y-100550057D02*
X140785714Y-100645295D01*
X140785714Y-100645295D02*
X140785714Y-100740533D01*
X140785714Y-100740533D02*
X140738095Y-100883390D01*
X140738095Y-100883390D02*
X140166667Y-101454819D01*
X140166667Y-101454819D02*
X140785714Y-101454819D01*
X135333333Y-100054819D02*
X135000000Y-99578628D01*
X134761905Y-100054819D02*
X134761905Y-99054819D01*
X134761905Y-99054819D02*
X135142857Y-99054819D01*
X135142857Y-99054819D02*
X135238095Y-99102438D01*
X135238095Y-99102438D02*
X135285714Y-99150057D01*
X135285714Y-99150057D02*
X135333333Y-99245295D01*
X135333333Y-99245295D02*
X135333333Y-99388152D01*
X135333333Y-99388152D02*
X135285714Y-99483390D01*
X135285714Y-99483390D02*
X135238095Y-99531009D01*
X135238095Y-99531009D02*
X135142857Y-99578628D01*
X135142857Y-99578628D02*
X134761905Y-99578628D01*
X136285714Y-100054819D02*
X135714286Y-100054819D01*
X136000000Y-100054819D02*
X136000000Y-99054819D01*
X136000000Y-99054819D02*
X135904762Y-99197676D01*
X135904762Y-99197676D02*
X135809524Y-99292914D01*
X135809524Y-99292914D02*
X135714286Y-99340533D01*
X141904761Y-92350057D02*
X141809523Y-92302438D01*
X141809523Y-92302438D02*
X141714285Y-92207200D01*
X141714285Y-92207200D02*
X141571428Y-92064342D01*
X141571428Y-92064342D02*
X141476190Y-92016723D01*
X141476190Y-92016723D02*
X141380952Y-92016723D01*
X141428571Y-92254819D02*
X141333333Y-92207200D01*
X141333333Y-92207200D02*
X141238095Y-92111961D01*
X141238095Y-92111961D02*
X141190476Y-91921485D01*
X141190476Y-91921485D02*
X141190476Y-91588152D01*
X141190476Y-91588152D02*
X141238095Y-91397676D01*
X141238095Y-91397676D02*
X141333333Y-91302438D01*
X141333333Y-91302438D02*
X141428571Y-91254819D01*
X141428571Y-91254819D02*
X141619047Y-91254819D01*
X141619047Y-91254819D02*
X141714285Y-91302438D01*
X141714285Y-91302438D02*
X141809523Y-91397676D01*
X141809523Y-91397676D02*
X141857142Y-91588152D01*
X141857142Y-91588152D02*
X141857142Y-91921485D01*
X141857142Y-91921485D02*
X141809523Y-92111961D01*
X141809523Y-92111961D02*
X141714285Y-92207200D01*
X141714285Y-92207200D02*
X141619047Y-92254819D01*
X141619047Y-92254819D02*
X141428571Y-92254819D01*
X142809523Y-92254819D02*
X142238095Y-92254819D01*
X142523809Y-92254819D02*
X142523809Y-91254819D01*
X142523809Y-91254819D02*
X142428571Y-91397676D01*
X142428571Y-91397676D02*
X142333333Y-91492914D01*
X142333333Y-91492914D02*
X142238095Y-91540533D01*
X148166666Y-105299819D02*
X148166666Y-106014104D01*
X148166666Y-106014104D02*
X148119047Y-106156961D01*
X148119047Y-106156961D02*
X148023809Y-106252200D01*
X148023809Y-106252200D02*
X147880952Y-106299819D01*
X147880952Y-106299819D02*
X147785714Y-106299819D01*
X149166666Y-106299819D02*
X148595238Y-106299819D01*
X148880952Y-106299819D02*
X148880952Y-105299819D01*
X148880952Y-105299819D02*
X148785714Y-105442676D01*
X148785714Y-105442676D02*
X148690476Y-105537914D01*
X148690476Y-105537914D02*
X148595238Y-105585533D01*
X137756905Y-81994819D02*
X137756905Y-80994819D01*
X137756905Y-80994819D02*
X137995000Y-80994819D01*
X137995000Y-80994819D02*
X138137857Y-81042438D01*
X138137857Y-81042438D02*
X138233095Y-81137676D01*
X138233095Y-81137676D02*
X138280714Y-81232914D01*
X138280714Y-81232914D02*
X138328333Y-81423390D01*
X138328333Y-81423390D02*
X138328333Y-81566247D01*
X138328333Y-81566247D02*
X138280714Y-81756723D01*
X138280714Y-81756723D02*
X138233095Y-81851961D01*
X138233095Y-81851961D02*
X138137857Y-81947200D01*
X138137857Y-81947200D02*
X137995000Y-81994819D01*
X137995000Y-81994819D02*
X137756905Y-81994819D01*
X139280714Y-81994819D02*
X138709286Y-81994819D01*
X138995000Y-81994819D02*
X138995000Y-80994819D01*
X138995000Y-80994819D02*
X138899762Y-81137676D01*
X138899762Y-81137676D02*
X138804524Y-81232914D01*
X138804524Y-81232914D02*
X138709286Y-81280533D01*
%TO.C,R3*%
D11*
X143730000Y-83130000D02*
X150270000Y-83130000D01*
X143730000Y-83460000D02*
X143730000Y-83130000D01*
X143730000Y-85540000D02*
X143730000Y-85870000D01*
X143730000Y-85870000D02*
X150270000Y-85870000D01*
X150270000Y-83130000D02*
X150270000Y-83460000D01*
X150270000Y-85870000D02*
X150270000Y-85540000D01*
%TO.C,R2*%
X142230000Y-101630000D02*
X148770000Y-101630000D01*
X142230000Y-101960000D02*
X142230000Y-101630000D01*
X142230000Y-104040000D02*
X142230000Y-104370000D01*
X142230000Y-104370000D02*
X148770000Y-104370000D01*
X148770000Y-101630000D02*
X148770000Y-101960000D01*
X148770000Y-104370000D02*
X148770000Y-104040000D01*
%TO.C,R1*%
X133950000Y-100350000D02*
X137000000Y-100350000D01*
X133950000Y-104650000D02*
X137000000Y-104650000D01*
X133950000Y-104650000D02*
G75*
G02*
X133971766Y-100334475I1550000J2150000D01*
G01*
X137000000Y-100350000D02*
G75*
G02*
X137044513Y-104618249I-1500000J-2150000D01*
G01*
%TO.C,Q1*%
X140200000Y-97210000D02*
X143800000Y-97210000D01*
X140161522Y-97198478D02*
G75*
G02*
X142000000Y-92759999I1838478J1838478D01*
G01*
X142000000Y-92760000D02*
G75*
G02*
X143838478Y-97198478I0J-2600000D01*
G01*
%TO.C,J1*%
X147120000Y-106845000D02*
X148500000Y-106845000D01*
X147120000Y-108225000D02*
X147120000Y-106845000D01*
X147120000Y-109495000D02*
X147120000Y-112145000D01*
X147120000Y-109495000D02*
X149880000Y-109495000D01*
X147120000Y-112145000D02*
X149880000Y-112145000D01*
X149880000Y-109495000D02*
X149880000Y-112145000D01*
%TO.C,D1*%
X135935000Y-83955000D02*
X135935000Y-87045000D01*
X135935000Y-83955170D02*
G75*
G02*
X141485000Y-85500000I2560000J-1544830D01*
G01*
X141485000Y-85500000D02*
G75*
G02*
X135935000Y-87044830I-2990000J0D01*
G01*
X140995000Y-85500000D02*
G75*
G02*
X135995000Y-85500000I-2500000J0D01*
G01*
X135995000Y-85500000D02*
G75*
G02*
X140995000Y-85500000I2500000J0D01*
G01*
%TD*%
M02*
